solid OpenSCAD_Model
  facet normal 0 -0.410365 0.911922
    outer loop
      vertex -8 -16 27
      vertex -5.5 -46 13.5
      vertex -5.5 -16 27
    endloop
  endfacet
  facet normal 0 -0.410365 0.911922
    outer loop
      vertex -5.5 -46 13.5
      vertex -8 -16 27
      vertex -8 -46 13.5
    endloop
  endfacet
  facet normal -1 0 0
    outer loop
      vertex -8 -10.9397 0
      vertex -8 -11 5
      vertex -8 -10.9397 5
    endloop
  endfacet
  facet normal -1 0 0
    outer loop
      vertex -8 -11 5
      vertex -8 -16 27
      vertex -8 -11 27
    endloop
  endfacet
  facet normal -1 0 0
    outer loop
      vertex -8 -46 0
      vertex -8 -11 5
      vertex -8 -10.9397 0
    endloop
  endfacet
  facet normal -1 -0 0
    outer loop
      vertex -8 -11 5
      vertex -8 -46 0
      vertex -8 -46 13.5
    endloop
  endfacet
  facet normal -1 0 0
    outer loop
      vertex -8 -11 5
      vertex -8 -46 13.5
      vertex -8 -16 27
    endloop
  endfacet
  facet normal 0 -1 0
    outer loop
      vertex -5.5 -46 11
      vertex -5.5 -46 13.5
      vertex -8 -46 13.5
    endloop
  endfacet
  facet normal 0 -1 0
    outer loop
      vertex -5.5 -46 13.5
      vertex -5.5 -46 11
      vertex 5.5 -46 13.5
    endloop
  endfacet
  facet normal 0 -1 0
    outer loop
      vertex 5.5 -46 11
      vertex 5.5 -46 13.5
      vertex -5.5 -46 11
    endloop
  endfacet
  facet normal 0 -1 0
    outer loop
      vertex -8 -46 13.5
      vertex -5.5 -46 5
      vertex -5.5 -46 11
    endloop
  endfacet
  facet normal 0 -1 -0
    outer loop
      vertex -5.5 -46 5
      vertex -8 -46 0
      vertex 5.5 -46 5
    endloop
  endfacet
  facet normal 0 -1 0
    outer loop
      vertex -8 -46 0
      vertex -5.5 -46 5
      vertex -8 -46 13.5
    endloop
  endfacet
  facet normal 0 -1 0
    outer loop
      vertex 5.5 -46 13.5
      vertex 5.5 -46 11
      vertex 8 -46 13.5
    endloop
  endfacet
  facet normal 0 -1 0
    outer loop
      vertex 5.5 -46 5
      vertex 8 -46 13.5
      vertex 5.5 -46 11
    endloop
  endfacet
  facet normal 0 -1 0
    outer loop
      vertex 5.5 -46 5
      vertex 8 -46 0
      vertex 8 -46 13.5
    endloop
  endfacet
  facet normal 0 -1 0
    outer loop
      vertex 8 -46 0
      vertex 5.5 -46 5
      vertex -8 -46 0
    endloop
  endfacet
  facet normal 0 0 1
    outer loop
      vertex 8 -11 27
      vertex 5.5 -16 27
      vertex 8 -16 27
    endloop
  endfacet
  facet normal 0 0 1
    outer loop
      vertex 8 -11 27
      vertex -5.5 -16 27
      vertex 5.5 -16 27
    endloop
  endfacet
  facet normal -0 0 1
    outer loop
      vertex -8 -11 27
      vertex -5.5 -16 27
      vertex 8 -11 27
    endloop
  endfacet
  facet normal 0 0 1
    outer loop
      vertex -5.5 -16 27
      vertex -8 -11 27
      vertex -8 -16 27
    endloop
  endfacet
  facet normal 0 1 0
    outer loop
      vertex 8 -11 27
      vertex 5.5 -11 24.5
      vertex -8 -11 27
    endloop
  endfacet
  facet normal 0 1 -0
    outer loop
      vertex 8 -11 5
      vertex 5.5 -11 24.5
      vertex 8 -11 27
    endloop
  endfacet
  facet normal 0 1 0
    outer loop
      vertex 5.5 -11 24.5
      vertex 8 -11 5
      vertex 5.5 -11 5
    endloop
  endfacet
  facet normal 0 1 -0
    outer loop
      vertex -5.5 -11 24.5
      vertex -8 -11 27
      vertex 5.5 -11 24.5
    endloop
  endfacet
  facet normal 0 1 0
    outer loop
      vertex -8 -11 5
      vertex -5.5 -11 24.5
      vertex -5.5 -11 5
    endloop
  endfacet
  facet normal 0 1 0
    outer loop
      vertex -5.5 -11 24.5
      vertex -8 -11 5
      vertex -8 -11 27
    endloop
  endfacet
  facet normal 1 0 0
    outer loop
      vertex -5.5 -16 27
      vertex -5.5 -41 13.5
      vertex -5.5 -16 24.5
    endloop
  endfacet
  facet normal 1 0 -0
    outer loop
      vertex -5.5 -41 13.5
      vertex -5.5 -16 27
      vertex -5.5 -46 13.5
    endloop
  endfacet
  facet normal 1 -0 0
    outer loop
      vertex -5.5 -16 24.5
      vertex -5.5 -11 5
      vertex -5.5 -11 24.5
    endloop
  endfacet
  facet normal 1 0 0
    outer loop
      vertex -5.5 -41 11
      vertex -5.5 -16 24.5
      vertex -5.5 -41 13.5
    endloop
  endfacet
  facet normal 1 0 0
    outer loop
      vertex -5.5 -16 24.5
      vertex -5.5 -41 11
      vertex -5.5 -11 5
    endloop
  endfacet
  facet normal 1 0 0
    outer loop
      vertex -5.5 -46 5
      vertex -5.5 -41 11
      vertex -5.5 -46 11
    endloop
  endfacet
  facet normal 1 0 0
    outer loop
      vertex -5.5 -41 11
      vertex -5.5 -46 5
      vertex -5.5 -11 5
    endloop
  endfacet
  facet normal 0 -0.410365 0.911922
    outer loop
      vertex 5.5 -16 27
      vertex 8 -46 13.5
      vertex 8 -16 27
    endloop
  endfacet
  facet normal 0 -0.410365 0.911922
    outer loop
      vertex 8 -46 13.5
      vertex 5.5 -16 27
      vertex 5.5 -46 13.5
    endloop
  endfacet
  facet normal -1 0 0
    outer loop
      vertex 5.5 -11 5
      vertex 5.5 -16 24.5
      vertex 5.5 -11 24.5
    endloop
  endfacet
  facet normal -1 0 0
    outer loop
      vertex 5.5 -41 13.5
      vertex 5.5 -16 24.5
      vertex 5.5 -41 11
    endloop
  endfacet
  facet normal -1 0 0
    outer loop
      vertex 5.5 -11 5
      vertex 5.5 -41 11
      vertex 5.5 -16 24.5
    endloop
  endfacet
  facet normal -1 0 0
    outer loop
      vertex 5.5 -46 5
      vertex 5.5 -41 11
      vertex 5.5 -11 5
    endloop
  endfacet
  facet normal -1 -0 0
    outer loop
      vertex 5.5 -41 11
      vertex 5.5 -46 5
      vertex 5.5 -46 11
    endloop
  endfacet
  facet normal -1 -0 0
    outer loop
      vertex 5.5 -16 24.5
      vertex 5.5 -41 13.5
      vertex 5.5 -16 27
    endloop
  endfacet
  facet normal -1 0 0
    outer loop
      vertex 5.5 -16 27
      vertex 5.5 -41 13.5
      vertex 5.5 -46 13.5
    endloop
  endfacet
  facet normal 1 0 0
    outer loop
      vertex 8 -11 27
      vertex 8 -16 27
      vertex 8 -11 5
    endloop
  endfacet
  facet normal 1 -0 0
    outer loop
      vertex 8 -11 5
      vertex 8 -10.9397 0
      vertex 8 -10.9397 5
    endloop
  endfacet
  facet normal 1 -0 0
    outer loop
      vertex 8 -46 13.5
      vertex 8 -11 5
      vertex 8 -16 27
    endloop
  endfacet
  facet normal 1 0 0
    outer loop
      vertex 8 -46 0
      vertex 8 -11 5
      vertex 8 -46 13.5
    endloop
  endfacet
  facet normal 1 0 0
    outer loop
      vertex 8 -11 5
      vertex 8 -46 0
      vertex 8 -10.9397 0
    endloop
  endfacet
  facet normal -0 0 1
    outer loop
      vertex -5.5 -41 13.5
      vertex 5.5 -46 13.5
      vertex 5.5 -41 13.5
    endloop
  endfacet
  facet normal 0 0 1
    outer loop
      vertex 5.5 -46 13.5
      vertex -5.5 -41 13.5
      vertex -5.5 -46 13.5
    endloop
  endfacet
  facet normal 0 1 -0
    outer loop
      vertex 5.5 -41 11
      vertex -5.5 -41 13.5
      vertex 5.5 -41 13.5
    endloop
  endfacet
  facet normal 0 1 0
    outer loop
      vertex -5.5 -41 13.5
      vertex 5.5 -41 11
      vertex -5.5 -41 11
    endloop
  endfacet
  facet normal 0 0 -1
    outer loop
      vertex -5.5 -46 11
      vertex 5.5 -41 11
      vertex 5.5 -46 11
    endloop
  endfacet
  facet normal -0 0 -1
    outer loop
      vertex 5.5 -41 11
      vertex -5.5 -46 11
      vertex -5.5 -41 11
    endloop
  endfacet
  facet normal 0 0 -1
    outer loop
      vertex -5.5 -16 24.5
      vertex 5.5 -11 24.5
      vertex 5.5 -16 24.5
    endloop
  endfacet
  facet normal -0 0 -1
    outer loop
      vertex 5.5 -11 24.5
      vertex -5.5 -16 24.5
      vertex -5.5 -11 24.5
    endloop
  endfacet
  facet normal 0 -1 0
    outer loop
      vertex -5.5 -16 24.5
      vertex 5.5 -16 27
      vertex -5.5 -16 27
    endloop
  endfacet
  facet normal 0 -1 -0
    outer loop
      vertex 5.5 -16 27
      vertex -5.5 -16 24.5
      vertex 5.5 -16 24.5
    endloop
  endfacet
  facet normal -0.974928 -0.222521 0
    outer loop
      vertex 2.2 -37.25 2.955
      vertex 1.98213 -36.2955 5
      vertex 1.98213 -36.2955 2.955
    endloop
  endfacet
  facet normal -0.974928 -0.222521 0
    outer loop
      vertex 1.98213 -36.2955 5
      vertex 2.2 -37.25 2.955
      vertex 2.2 -37.25 5
    endloop
  endfacet
  facet normal 0.974928 -0.222521 0
    outer loop
      vertex -2.2 -37.25 5
      vertex -1.98213 -36.2955 2.955
      vertex -1.98213 -36.2955 5
    endloop
  endfacet
  facet normal 0.974928 -0.222521 0
    outer loop
      vertex -1.98213 -36.2955 2.955
      vertex -2.2 -37.25 5
      vertex -2.2 -37.25 2.955
    endloop
  endfacet
  facet normal 0 -1 0
    outer loop
      vertex -0.489546 -35.1052 2.955
      vertex 0.489546 -35.1052 5
      vertex -0.489546 -35.1052 5
    endloop
  endfacet
  facet normal 0 -1 -0
    outer loop
      vertex 0.489546 -35.1052 5
      vertex -0.489546 -35.1052 2.955
      vertex 0.489546 -35.1052 2.955
    endloop
  endfacet
  facet normal 0.433884 -0.900969 0
    outer loop
      vertex -1.37168 -35.53 2.955
      vertex -0.489546 -35.1052 5
      vertex -1.37168 -35.53 5
    endloop
  endfacet
  facet normal 0.433884 -0.900969 0
    outer loop
      vertex -0.489546 -35.1052 5
      vertex -1.37168 -35.53 2.955
      vertex -0.489546 -35.1052 2.955
    endloop
  endfacet
  facet normal 0 1 -0
    outer loop
      vertex 0.489546 -39.3948 2.955
      vertex -0.489546 -39.3948 5
      vertex 0.489546 -39.3948 5
    endloop
  endfacet
  facet normal 0 1 0
    outer loop
      vertex -0.489546 -39.3948 5
      vertex 0.489546 -39.3948 2.955
      vertex -0.489546 -39.3948 2.955
    endloop
  endfacet
  facet normal -0.781831 0.62349 0
    outer loop
      vertex 1.37168 -38.97 2.955
      vertex 1.98213 -38.2045 5
      vertex 1.98213 -38.2045 2.955
    endloop
  endfacet
  facet normal -0.781831 0.62349 0
    outer loop
      vertex 1.98213 -38.2045 5
      vertex 1.37168 -38.97 2.955
      vertex 1.37168 -38.97 5
    endloop
  endfacet
  facet normal -0.433884 -0.900969 0
    outer loop
      vertex 0.489546 -35.1052 2.955
      vertex 1.37168 -35.53 5
      vertex 0.489546 -35.1052 5
    endloop
  endfacet
  facet normal -0.433884 -0.900969 -0
    outer loop
      vertex 1.37168 -35.53 5
      vertex 0.489546 -35.1052 2.955
      vertex 1.37168 -35.53 2.955
    endloop
  endfacet
  facet normal -0.781831 -0.62349 0
    outer loop
      vertex 1.98213 -36.2955 2.955
      vertex 1.37168 -35.53 5
      vertex 1.37168 -35.53 2.955
    endloop
  endfacet
  facet normal -0.781831 -0.62349 0
    outer loop
      vertex 1.37168 -35.53 5
      vertex 1.98213 -36.2955 2.955
      vertex 1.98213 -36.2955 5
    endloop
  endfacet
  facet normal 0.781831 -0.62349 0
    outer loop
      vertex -1.98213 -36.2955 5
      vertex -1.37168 -35.53 2.955
      vertex -1.37168 -35.53 5
    endloop
  endfacet
  facet normal 0.781831 -0.62349 0
    outer loop
      vertex -1.37168 -35.53 2.955
      vertex -1.98213 -36.2955 5
      vertex -1.98213 -36.2955 2.955
    endloop
  endfacet
  facet normal -0.974928 0.222521 0
    outer loop
      vertex 1.98213 -38.2045 2.955
      vertex 2.2 -37.25 5
      vertex 2.2 -37.25 2.955
    endloop
  endfacet
  facet normal -0.974928 0.222521 0
    outer loop
      vertex 2.2 -37.25 5
      vertex 1.98213 -38.2045 2.955
      vertex 1.98213 -38.2045 5
    endloop
  endfacet
  facet normal -0.433884 0.900969 0
    outer loop
      vertex 1.37168 -38.97 2.955
      vertex 0.489546 -39.3948 5
      vertex 1.37168 -38.97 5
    endloop
  endfacet
  facet normal -0.433884 0.900969 0
    outer loop
      vertex 0.489546 -39.3948 5
      vertex 1.37168 -38.97 2.955
      vertex 0.489546 -39.3948 2.955
    endloop
  endfacet
  facet normal 0.433884 0.900969 -0
    outer loop
      vertex -0.489546 -39.3948 2.955
      vertex -1.37168 -38.97 5
      vertex -0.489546 -39.3948 5
    endloop
  endfacet
  facet normal 0.433884 0.900969 0
    outer loop
      vertex -1.37168 -38.97 5
      vertex -0.489546 -39.3948 2.955
      vertex -1.37168 -38.97 2.955
    endloop
  endfacet
  facet normal 0.781831 0.62349 0
    outer loop
      vertex -1.37168 -38.97 5
      vertex -1.98213 -38.2045 2.955
      vertex -1.98213 -38.2045 5
    endloop
  endfacet
  facet normal 0.781831 0.62349 0
    outer loop
      vertex -1.98213 -38.2045 2.955
      vertex -1.37168 -38.97 5
      vertex -1.37168 -38.97 2.955
    endloop
  endfacet
  facet normal 0.974928 0.222521 0
    outer loop
      vertex -1.98213 -38.2045 5
      vertex -2.2 -37.25 2.955
      vertex -2.2 -37.25 5
    endloop
  endfacet
  facet normal 0.974928 0.222521 0
    outer loop
      vertex -2.2 -37.25 2.955
      vertex -1.98213 -38.2045 5
      vertex -1.98213 -38.2045 2.955
    endloop
  endfacet
  facet normal -0.866035 -0.499983 0
    outer loop
      vertex 2.05 -33.6993 0.54
      vertex 2.07485 -33.7423 2.745
      vertex 2.05 -33.6993 2.755
    endloop
  endfacet
  facet normal -0.866025 -0.5 -4.29659e-07
    outer loop
      vertex 4.1 -37.25 0.54
      vertex 2.07485 -33.7423 2.745
      vertex 2.05 -33.6993 0.54
    endloop
  endfacet
  facet normal -0.866025 -0.5 0
    outer loop
      vertex 2.07485 -33.7423 2.745
      vertex 4.1 -37.25 0.54
      vertex 4.1 -37.25 2.745
    endloop
  endfacet
  facet normal -0.866035 -0.499983 0
    outer loop
      vertex 2.05 -33.6993 2.755
      vertex 2.07485 -33.7423 2.745
      vertex 2.07485 -33.7423 2.755
    endloop
  endfacet
  facet normal 0.866035 -0.499983 0
    outer loop
      vertex -2.07485 -33.7423 2.745
      vertex -2.05 -33.6993 2.755
      vertex -2.07485 -33.7423 2.755
    endloop
  endfacet
  facet normal 0.866035 -0.499983 0
    outer loop
      vertex -2.05 -33.6993 2.755
      vertex -2.07485 -33.7423 2.745
      vertex -2.05 -33.6993 0.54
    endloop
  endfacet
  facet normal 0.866025 -0.5 0
    outer loop
      vertex -4.1 -37.25 0.54
      vertex -2.07485 -33.7423 2.745
      vertex -4.1 -37.25 2.745
    endloop
  endfacet
  facet normal 0.866025 -0.5 -4.29659e-07
    outer loop
      vertex -2.07485 -33.7423 2.745
      vertex -4.1 -37.25 0.54
      vertex -2.05 -33.6993 0.54
    endloop
  endfacet
  facet normal 0 -1 0
    outer loop
      vertex -2.05 -33.6993 2.755
      vertex -1.99283 -33.6993 2.745
      vertex -1.99283 -33.6993 2.755
    endloop
  endfacet
  facet normal 0 -1 -0
    outer loop
      vertex -1.99283 -33.6993 2.745
      vertex -2.05 -33.6993 0.54
      vertex 1.99283 -33.6993 2.745
    endloop
  endfacet
  facet normal 0 -1 0
    outer loop
      vertex -2.05 -33.6993 0.54
      vertex -1.99283 -33.6993 2.745
      vertex -2.05 -33.6993 2.755
    endloop
  endfacet
  facet normal 0 -1 0
    outer loop
      vertex 1.99283 -33.6993 2.745
      vertex 2.05 -33.6993 2.755
      vertex 1.99283 -33.6993 2.755
    endloop
  endfacet
  facet normal 0 -1 0
    outer loop
      vertex 2.05 -33.6993 0.54
      vertex 1.99283 -33.6993 2.745
      vertex -2.05 -33.6993 0.54
    endloop
  endfacet
  facet normal 0 -1 0
    outer loop
      vertex 1.99283 -33.6993 2.745
      vertex 2.05 -33.6993 0.54
      vertex 2.05 -33.6993 2.755
    endloop
  endfacet
  facet normal -0 -0 -1
    outer loop
      vertex 2.05 -33.6993 2.755
      vertex 2.07485 -33.7423 2.755
      vertex 1.99283 -33.6993 2.755
    endloop
  endfacet
  facet normal 0 -0 -1
    outer loop
      vertex -2.05 -33.6993 2.755
      vertex -1.99283 -33.6993 2.755
      vertex -2.07485 -33.7423 2.755
    endloop
  endfacet
  facet normal 0 0 -1
    outer loop
      vertex -1.99283 -40.8007 2.755
      vertex -2.05 -40.8007 2.755
      vertex -2.07485 -40.7577 2.755
    endloop
  endfacet
  facet normal 0 0 -1
    outer loop
      vertex 2.07485 -40.7577 2.755
      vertex 2.05 -40.8007 2.755
      vertex 1.99283 -40.8007 2.755
    endloop
  endfacet
  facet normal -0.866025 0.5 0
    outer loop
      vertex 4.1 -37.25 0.54
      vertex 2.07485 -40.7577 2.745
      vertex 4.1 -37.25 2.745
    endloop
  endfacet
  facet normal -0.866025 0.5 -4.29659e-07
    outer loop
      vertex 2.05 -40.8007 0.54
      vertex 2.07485 -40.7577 2.745
      vertex 4.1 -37.25 0.54
    endloop
  endfacet
  facet normal -0.866035 0.499983 0
    outer loop
      vertex 2.05 -40.8007 2.755
      vertex 2.07485 -40.7577 2.745
      vertex 2.05 -40.8007 0.54
    endloop
  endfacet
  facet normal -0.866035 0.499983 0
    outer loop
      vertex 2.07485 -40.7577 2.745
      vertex 2.05 -40.8007 2.755
      vertex 2.07485 -40.7577 2.755
    endloop
  endfacet
  facet normal 0 1 0
    outer loop
      vertex 2.05 -40.8007 2.755
      vertex 1.99283 -40.8007 2.745
      vertex 1.99283 -40.8007 2.755
    endloop
  endfacet
  facet normal 0 1 0
    outer loop
      vertex 1.99283 -40.8007 2.745
      vertex 2.05 -40.8007 0.54
      vertex -1.99283 -40.8007 2.745
    endloop
  endfacet
  facet normal 0 1 -0
    outer loop
      vertex 2.05 -40.8007 0.54
      vertex 1.99283 -40.8007 2.745
      vertex 2.05 -40.8007 2.755
    endloop
  endfacet
  facet normal 0 1 -0
    outer loop
      vertex -1.99283 -40.8007 2.745
      vertex -2.05 -40.8007 2.755
      vertex -1.99283 -40.8007 2.755
    endloop
  endfacet
  facet normal 0 1 0
    outer loop
      vertex -2.05 -40.8007 0.54
      vertex -1.99283 -40.8007 2.745
      vertex 2.05 -40.8007 0.54
    endloop
  endfacet
  facet normal 0 1 0
    outer loop
      vertex -1.99283 -40.8007 2.745
      vertex -2.05 -40.8007 0.54
      vertex -2.05 -40.8007 2.755
    endloop
  endfacet
  facet normal 0.866035 0.499983 0
    outer loop
      vertex -2.07485 -40.7577 2.755
      vertex -2.05 -40.8007 2.755
      vertex -2.07485 -40.7577 2.745
    endloop
  endfacet
  facet normal 0.866025 0.5 0
    outer loop
      vertex -2.07485 -40.7577 2.745
      vertex -4.1 -37.25 0.54
      vertex -4.1 -37.25 2.745
    endloop
  endfacet
  facet normal 0.866035 0.499983 -0
    outer loop
      vertex -2.05 -40.8007 0.54
      vertex -2.07485 -40.7577 2.745
      vertex -2.05 -40.8007 2.755
    endloop
  endfacet
  facet normal 0.866025 0.5 -4.29659e-07
    outer loop
      vertex -2.07485 -40.7577 2.745
      vertex -2.05 -40.8007 0.54
      vertex -4.1 -37.25 0.54
    endloop
  endfacet
  facet normal 0 0.755931 -0.654652
    outer loop
      vertex 2.32 -41.2684 0
      vertex -2.05 -40.8007 0.54
      vertex 2.05 -40.8007 0.54
    endloop
  endfacet
  facet normal 0 0.755931 -0.654652
    outer loop
      vertex -2.05 -40.8007 0.54
      vertex 2.32 -41.2684 0
      vertex -2.32 -41.2684 0
    endloop
  endfacet
  facet normal -0.654654 0.377965 -0.654653
    outer loop
      vertex 2.98625 -40.1144 0
      vertex 2.05 -40.8007 0.54
      vertex 4.1 -37.25 0.54
    endloop
  endfacet
  facet normal -0.654654 0.377965 -0.654653
    outer loop
      vertex 2.05 -40.8007 0.54
      vertex 2.98625 -40.1144 0
      vertex 2.32 -41.2684 0
    endloop
  endfacet
  facet normal -0.654653 0.377964 -0.654654
    outer loop
      vertex 4.1 -37.25 0.54
      vertex 4.64 -37.25 0
      vertex 2.98625 -40.1144 0
    endloop
  endfacet
  facet normal -0.654653 -0.377964 -0.654654
    outer loop
      vertex 4.64 -37.25 0
      vertex 4.1 -37.25 0.54
      vertex 2.98625 -34.3856 0
    endloop
  endfacet
  facet normal 0.654653 0.377964 -0.654654
    outer loop
      vertex -4.1 -37.25 0.54
      vertex -2.98625 -40.1144 0
      vertex -4.64 -37.25 0
    endloop
  endfacet
  facet normal 0.654653 -0.377964 -0.654654
    outer loop
      vertex -2.98625 -34.3856 0
      vertex -4.1 -37.25 0.54
      vertex -4.64 -37.25 0
    endloop
  endfacet
  facet normal 0 -0.755931 -0.654652
    outer loop
      vertex -2.32 -33.2316 0
      vertex 2.05 -33.6993 0.54
      vertex -2.05 -33.6993 0.54
    endloop
  endfacet
  facet normal 0 -0.755931 -0.654652
    outer loop
      vertex 2.05 -33.6993 0.54
      vertex -2.32 -33.2316 0
      vertex 2.32 -33.2316 0
    endloop
  endfacet
  facet normal 0.654654 0.377965 -0.654653
    outer loop
      vertex -2.05 -40.8007 0.54
      vertex -2.98625 -40.1144 0
      vertex -4.1 -37.25 0.54
    endloop
  endfacet
  facet normal 0.654654 0.377965 -0.654653
    outer loop
      vertex -2.98625 -40.1144 0
      vertex -2.05 -40.8007 0.54
      vertex -2.32 -41.2684 0
    endloop
  endfacet
  facet normal -0.654654 -0.377965 -0.654653
    outer loop
      vertex 2.98625 -34.3856 0
      vertex 2.05 -33.6993 0.54
      vertex 2.32 -33.2316 0
    endloop
  endfacet
  facet normal -0.654654 -0.377965 -0.654653
    outer loop
      vertex 2.05 -33.6993 0.54
      vertex 2.98625 -34.3856 0
      vertex 4.1 -37.25 0.54
    endloop
  endfacet
  facet normal 0.654654 -0.377965 -0.654653
    outer loop
      vertex -2.05 -33.6993 0.54
      vertex -2.98625 -34.3856 0
      vertex -2.32 -33.2316 0
    endloop
  endfacet
  facet normal 0.654654 -0.377965 -0.654653
    outer loop
      vertex -2.98625 -34.3856 0
      vertex -2.05 -33.6993 0.54
      vertex -4.1 -37.25 0.54
    endloop
  endfacet
  facet normal -0.464738 0.885448 0
    outer loop
      vertex -1.99283 -33.6993 2.745
      vertex -2.07485 -33.7423 2.755
      vertex -1.99283 -33.6993 2.755
    endloop
  endfacet
  facet normal -0.464738 0.885448 0
    outer loop
      vertex -2.07485 -33.7423 2.755
      vertex -1.99283 -33.6993 2.745
      vertex -2.07485 -33.7423 2.745
    endloop
  endfacet
  facet normal 0.464738 0.885448 -0
    outer loop
      vertex 2.07485 -33.7423 2.745
      vertex 1.99283 -33.6993 2.755
      vertex 2.07485 -33.7423 2.755
    endloop
  endfacet
  facet normal 0.464738 0.885448 0
    outer loop
      vertex 1.99283 -33.6993 2.755
      vertex 2.07485 -33.7423 2.745
      vertex 1.99283 -33.6993 2.745
    endloop
  endfacet
  facet normal 0 0 1
    outer loop
      vertex 1.98213 -36.2955 2.955
      vertex 1.98213 -38.2045 2.955
      vertex 2.2 -37.25 2.955
    endloop
  endfacet
  facet normal 0 0 1
    outer loop
      vertex 1.37168 -35.53 2.955
      vertex 1.98213 -38.2045 2.955
      vertex 1.98213 -36.2955 2.955
    endloop
  endfacet
  facet normal 0 0 1
    outer loop
      vertex 1.37168 -35.53 2.955
      vertex 1.37168 -38.97 2.955
      vertex 1.98213 -38.2045 2.955
    endloop
  endfacet
  facet normal 0 0 1
    outer loop
      vertex 0.489546 -35.1052 2.955
      vertex 1.37168 -38.97 2.955
      vertex 1.37168 -35.53 2.955
    endloop
  endfacet
  facet normal 0 0 1
    outer loop
      vertex 0.489546 -35.1052 2.955
      vertex 0.489546 -39.3948 2.955
      vertex 1.37168 -38.97 2.955
    endloop
  endfacet
  facet normal -0 0 1
    outer loop
      vertex -0.489546 -35.1052 2.955
      vertex 0.489546 -39.3948 2.955
      vertex 0.489546 -35.1052 2.955
    endloop
  endfacet
  facet normal 0 0 1
    outer loop
      vertex -0.489546 -35.1052 2.955
      vertex -0.489546 -39.3948 2.955
      vertex 0.489546 -39.3948 2.955
    endloop
  endfacet
  facet normal -0 0 1
    outer loop
      vertex -1.37168 -35.53 2.955
      vertex -0.489546 -39.3948 2.955
      vertex -0.489546 -35.1052 2.955
    endloop
  endfacet
  facet normal 0 0 1
    outer loop
      vertex -1.37168 -35.53 2.955
      vertex -1.37168 -38.97 2.955
      vertex -0.489546 -39.3948 2.955
    endloop
  endfacet
  facet normal -0 0 1
    outer loop
      vertex -1.98213 -36.2955 2.955
      vertex -1.37168 -38.97 2.955
      vertex -1.37168 -35.53 2.955
    endloop
  endfacet
  facet normal 0 0 1
    outer loop
      vertex -1.98213 -36.2955 2.955
      vertex -1.98213 -38.2045 2.955
      vertex -1.37168 -38.97 2.955
    endloop
  endfacet
  facet normal 0 -0 1
    outer loop
      vertex -1.98213 -38.2045 2.955
      vertex -1.98213 -36.2955 2.955
      vertex -2.2 -37.25 2.955
    endloop
  endfacet
  facet normal 0 0 -1
    outer loop
      vertex 1.99283 -40.8007 2.745
      vertex 4.1 -37.25 2.745
      vertex 2.07485 -40.7577 2.745
    endloop
  endfacet
  facet normal 0 0 -1
    outer loop
      vertex 1.99283 -33.6993 2.745
      vertex 4.1 -37.25 2.745
      vertex 1.99283 -40.8007 2.745
    endloop
  endfacet
  facet normal 0 0 -1
    outer loop
      vertex 4.1 -37.25 2.745
      vertex 1.99283 -33.6993 2.745
      vertex 2.07485 -33.7423 2.745
    endloop
  endfacet
  facet normal 0 0 -1
    outer loop
      vertex -1.99283 -40.8007 2.745
      vertex 1.99283 -33.6993 2.745
      vertex 1.99283 -40.8007 2.745
    endloop
  endfacet
  facet normal 0 0 -1
    outer loop
      vertex -1.99283 -40.8007 2.745
      vertex -1.99283 -33.6993 2.745
      vertex 1.99283 -33.6993 2.745
    endloop
  endfacet
  facet normal 0 0 -1
    outer loop
      vertex -4.1 -37.25 2.745
      vertex -1.99283 -40.8007 2.745
      vertex -2.07485 -40.7577 2.745
    endloop
  endfacet
  facet normal 0 0 -1
    outer loop
      vertex -1.99283 -40.8007 2.745
      vertex -4.1 -37.25 2.745
      vertex -1.99283 -33.6993 2.745
    endloop
  endfacet
  facet normal 0 0 -1
    outer loop
      vertex -1.99283 -33.6993 2.745
      vertex -4.1 -37.25 2.745
      vertex -2.07485 -33.7423 2.745
    endloop
  endfacet
  facet normal -0.464738 -0.885448 0
    outer loop
      vertex -2.07485 -40.7577 2.745
      vertex -1.99283 -40.8007 2.755
      vertex -2.07485 -40.7577 2.755
    endloop
  endfacet
  facet normal -0.464738 -0.885448 -0
    outer loop
      vertex -1.99283 -40.8007 2.755
      vertex -2.07485 -40.7577 2.745
      vertex -1.99283 -40.8007 2.745
    endloop
  endfacet
  facet normal 0.464738 -0.885448 0
    outer loop
      vertex 1.99283 -40.8007 2.745
      vertex 2.07485 -40.7577 2.755
      vertex 1.99283 -40.8007 2.755
    endloop
  endfacet
  facet normal 0.464738 -0.885448 0
    outer loop
      vertex 2.07485 -40.7577 2.755
      vertex 1.99283 -40.8007 2.745
      vertex 2.07485 -40.7577 2.745
    endloop
  endfacet
  facet normal -0.974928 -0.222521 0
    outer loop
      vertex -9.8 0 0.790001
      vertex -10.0179 0.954544 5
      vertex -10.0179 0.954544 0.790001
    endloop
  endfacet
  facet normal -0.974928 -0.222521 0
    outer loop
      vertex -10.0179 0.954544 5
      vertex -9.8 0 0.790001
      vertex -9.8 0 5
    endloop
  endfacet
  facet normal 0.974928 -0.222521 0
    outer loop
      vertex -14.2 0 5
      vertex -13.9821 0.954544 0.790001
      vertex -13.9821 0.954544 5
    endloop
  endfacet
  facet normal 0.974928 -0.222521 0
    outer loop
      vertex -13.9821 0.954544 0.790001
      vertex -14.2 0 5
      vertex -14.2 0 0.790001
    endloop
  endfacet
  facet normal 0 -1 0
    outer loop
      vertex -12.4895 2.14484 0.790001
      vertex -11.5105 2.14484 5
      vertex -12.4895 2.14484 5
    endloop
  endfacet
  facet normal 0 -1 -0
    outer loop
      vertex -11.5105 2.14484 5
      vertex -12.4895 2.14484 0.790001
      vertex -11.5105 2.14484 0.790001
    endloop
  endfacet
  facet normal 0.433884 -0.900969 0
    outer loop
      vertex -13.3717 1.72003 0.790001
      vertex -12.4895 2.14484 5
      vertex -13.3717 1.72003 5
    endloop
  endfacet
  facet normal 0.433884 -0.900969 0
    outer loop
      vertex -12.4895 2.14484 5
      vertex -13.3717 1.72003 0.790001
      vertex -12.4895 2.14484 0.790001
    endloop
  endfacet
  facet normal 0 1 -0
    outer loop
      vertex -11.5105 -2.14484 0.790001
      vertex -12.4895 -2.14484 5
      vertex -11.5105 -2.14484 5
    endloop
  endfacet
  facet normal 0 1 0
    outer loop
      vertex -12.4895 -2.14484 5
      vertex -11.5105 -2.14484 0.790001
      vertex -12.4895 -2.14484 0.790001
    endloop
  endfacet
  facet normal -0.781832 0.62349 0
    outer loop
      vertex -10.6283 -1.72003 0.790001
      vertex -10.0179 -0.954544 5
      vertex -10.0179 -0.954544 0.790001
    endloop
  endfacet
  facet normal -0.781832 0.62349 0
    outer loop
      vertex -10.0179 -0.954544 5
      vertex -10.6283 -1.72003 0.790001
      vertex -10.6283 -1.72003 5
    endloop
  endfacet
  facet normal -0.433884 -0.900969 0
    outer loop
      vertex -11.5105 2.14484 0.790001
      vertex -10.6283 1.72003 5
      vertex -11.5105 2.14484 5
    endloop
  endfacet
  facet normal -0.433884 -0.900969 -0
    outer loop
      vertex -10.6283 1.72003 5
      vertex -11.5105 2.14484 0.790001
      vertex -10.6283 1.72003 0.790001
    endloop
  endfacet
  facet normal -0.781832 -0.62349 0
    outer loop
      vertex -10.0179 0.954544 0.790001
      vertex -10.6283 1.72003 5
      vertex -10.6283 1.72003 0.790001
    endloop
  endfacet
  facet normal -0.781832 -0.62349 0
    outer loop
      vertex -10.6283 1.72003 5
      vertex -10.0179 0.954544 0.790001
      vertex -10.0179 0.954544 5
    endloop
  endfacet
  facet normal 0.781832 -0.62349 0
    outer loop
      vertex -13.9821 0.954544 5
      vertex -13.3717 1.72003 0.790001
      vertex -13.3717 1.72003 5
    endloop
  endfacet
  facet normal 0.781832 -0.62349 0
    outer loop
      vertex -13.3717 1.72003 0.790001
      vertex -13.9821 0.954544 5
      vertex -13.9821 0.954544 0.790001
    endloop
  endfacet
  facet normal -0.974928 0.222521 0
    outer loop
      vertex -10.0179 -0.954544 0.790001
      vertex -9.8 0 5
      vertex -9.8 0 0.790001
    endloop
  endfacet
  facet normal -0.974928 0.222521 0
    outer loop
      vertex -9.8 0 5
      vertex -10.0179 -0.954544 0.790001
      vertex -10.0179 -0.954544 5
    endloop
  endfacet
  facet normal -0.433884 0.900969 0
    outer loop
      vertex -10.6283 -1.72003 0.790001
      vertex -11.5105 -2.14484 5
      vertex -10.6283 -1.72003 5
    endloop
  endfacet
  facet normal -0.433884 0.900969 0
    outer loop
      vertex -11.5105 -2.14484 5
      vertex -10.6283 -1.72003 0.790001
      vertex -11.5105 -2.14484 0.790001
    endloop
  endfacet
  facet normal 0.433884 0.900969 -0
    outer loop
      vertex -12.4895 -2.14484 0.790001
      vertex -13.3717 -1.72003 5
      vertex -12.4895 -2.14484 5
    endloop
  endfacet
  facet normal 0.433884 0.900969 0
    outer loop
      vertex -13.3717 -1.72003 5
      vertex -12.4895 -2.14484 0.790001
      vertex -13.3717 -1.72003 0.790001
    endloop
  endfacet
  facet normal 0.781832 0.62349 0
    outer loop
      vertex -13.3717 -1.72003 5
      vertex -13.9821 -0.954544 0.790001
      vertex -13.9821 -0.954544 5
    endloop
  endfacet
  facet normal 0.781832 0.62349 0
    outer loop
      vertex -13.9821 -0.954544 0.790001
      vertex -13.3717 -1.72003 5
      vertex -13.3717 -1.72003 0.790001
    endloop
  endfacet
  facet normal 0.974928 0.222521 0
    outer loop
      vertex -13.9821 -0.954544 5
      vertex -14.2 0 0.790001
      vertex -14.2 0 5
    endloop
  endfacet
  facet normal 0.974928 0.222521 0
    outer loop
      vertex -14.2 0 0.790001
      vertex -13.9821 -0.954544 5
      vertex -13.9821 -0.954544 0.790001
    endloop
  endfacet
  facet normal -0.559812 0.446435 -0.698073
    outer loop
      vertex -10.0179 -0.954544 0.790001
      vertex -9.3061 -1.29731 0
      vertex -10.1281 -2.32811 0
    endloop
  endfacet
  facet normal -0.698076 -0.159307 -0.698076
    outer loop
      vertex -9.8 0 0.790001
      vertex -9.01272 0.0119309 0
      vertex -9.01 0 0
    endloop
  endfacet
  facet normal -0.698073 -0.159331 -0.698074
    outer loop
      vertex -9.01272 0.0119309 0
      vertex -9.8 0 0.790001
      vertex -10.0179 0.954544 0.790001
    endloop
  endfacet
  facet normal -0.559838 0.446408 -0.698069
    outer loop
      vertex -10.6283 -1.72003 0.790001
      vertex -10.1281 -2.32811 0
      vertex -10.1358 -2.33768 0
    endloop
  endfacet
  facet normal -0.559812 0.446435 -0.698073
    outer loop
      vertex -10.1281 -2.32811 0
      vertex -10.6283 -1.72003 0.790001
      vertex -10.0179 -0.954544 0.790001
    endloop
  endfacet
  facet normal -0.698076 0.159307 -0.698076
    outer loop
      vertex -9.01272 -0.0119309 0
      vertex -9.8 0 0.790001
      vertex -9.01 0 0
    endloop
  endfacet
  facet normal -0.698073 0.159331 -0.698074
    outer loop
      vertex -9.8 0 0.790001
      vertex -9.01272 -0.0119309 0
      vertex -10.0179 -0.954544 0.790001
    endloop
  endfacet
  facet normal -0.698074 0.159332 -0.698073
    outer loop
      vertex -9.01272 -0.0119309 0
      vertex -9.3061 -1.29731 0
      vertex -10.0179 -0.954544 0.790001
    endloop
  endfacet
  facet normal -0.310672 -0.645117 -0.698074
    outer loop
      vertex -11.3347 2.91504 0
      vertex -10.1468 2.34299 0
      vertex -11.5105 2.14484 0.790001
    endloop
  endfacet
  facet normal -0.559812 -0.446435 -0.698073
    outer loop
      vertex -9.3061 1.29731 0
      vertex -10.0179 0.954544 0.790001
      vertex -10.1281 2.32811 0
    endloop
  endfacet
  facet normal -0.698074 -0.159332 -0.698073
    outer loop
      vertex -9.3061 1.29731 0
      vertex -9.01272 0.0119309 0
      vertex -10.0179 0.954544 0.790001
    endloop
  endfacet
  facet normal 0.310672 0.645117 -0.698074
    outer loop
      vertex -13.8532 -2.34299 0
      vertex -13.3717 -1.72003 0.790001
      vertex -12.4895 -2.14484 0.790001
    endloop
  endfacet
  facet normal 0.310663 0.645123 -0.698072
    outer loop
      vertex -13.3717 -1.72003 0.790001
      vertex -13.8532 -2.34299 0
      vertex -13.8642 -2.33768 0
    endloop
  endfacet
  facet normal 0.310672 0.645117 -0.698074
    outer loop
      vertex -12.4895 -2.14484 0.790001
      vertex -12.6653 -2.91504 0
      vertex -13.8532 -2.34299 0
    endloop
  endfacet
  facet normal -0.310663 -0.645123 -0.698072
    outer loop
      vertex -10.6283 1.72003 0.790001
      vertex -10.1468 2.34299 0
      vertex -10.1358 2.33768 0
    endloop
  endfacet
  facet normal -0.310672 -0.645117 -0.698074
    outer loop
      vertex -10.1468 2.34299 0
      vertex -10.6283 1.72003 0.790001
      vertex -11.5105 2.14484 0.790001
    endloop
  endfacet
  facet normal 0 -0.716026 -0.698074
    outer loop
      vertex -12.6653 2.91504 0
      vertex -11.5105 2.14484 0.790001
      vertex -12.4895 2.14484 0.790001
    endloop
  endfacet
  facet normal 0 -0.716026 -0.698074
    outer loop
      vertex -11.5105 2.14484 0.790001
      vertex -12.6653 2.91504 0
      vertex -11.3347 2.91504 0
    endloop
  endfacet
  facet normal 0.559838 -0.446408 -0.698069
    outer loop
      vertex -13.3717 1.72003 0.790001
      vertex -13.8719 2.32811 0
      vertex -13.8642 2.33768 0
    endloop
  endfacet
  facet normal 0.559812 -0.446435 -0.698073
    outer loop
      vertex -13.8719 2.32811 0
      vertex -13.3717 1.72003 0.790001
      vertex -13.9821 0.954544 0.790001
    endloop
  endfacet
  facet normal 0.559812 -0.446435 -0.698073
    outer loop
      vertex -13.8719 2.32811 0
      vertex -13.9821 0.954544 0.790001
      vertex -14.6939 1.29731 0
    endloop
  endfacet
  facet normal 0.698073 -0.159331 -0.698074
    outer loop
      vertex -14.2 0 0.790001
      vertex -14.9873 0.0119309 0
      vertex -13.9821 0.954544 0.790001
    endloop
  endfacet
  facet normal 0.698076 -0.159307 -0.698076
    outer loop
      vertex -14.9873 0.0119309 0
      vertex -14.2 0 0.790001
      vertex -14.99 0 0
    endloop
  endfacet
  facet normal 0.698074 -0.159332 -0.698073
    outer loop
      vertex -14.6939 1.29731 0
      vertex -13.9821 0.954544 0.790001
      vertex -14.9873 0.0119309 0
    endloop
  endfacet
  facet normal 0 0.716026 -0.698074
    outer loop
      vertex -11.3347 -2.91504 0
      vertex -12.4895 -2.14484 0.790001
      vertex -11.5105 -2.14484 0.790001
    endloop
  endfacet
  facet normal 0 0.716026 -0.698074
    outer loop
      vertex -12.4895 -2.14484 0.790001
      vertex -11.3347 -2.91504 0
      vertex -12.6653 -2.91504 0
    endloop
  endfacet
  facet normal -0.559812 -0.446435 -0.698073
    outer loop
      vertex -10.6283 1.72003 0.790001
      vertex -10.1281 2.32811 0
      vertex -10.0179 0.954544 0.790001
    endloop
  endfacet
  facet normal -0.559838 -0.446408 -0.698069
    outer loop
      vertex -10.1281 2.32811 0
      vertex -10.6283 1.72003 0.790001
      vertex -10.1358 2.33768 0
    endloop
  endfacet
  facet normal 0.310672 -0.645117 -0.698074
    outer loop
      vertex -12.6653 2.91504 0
      vertex -12.4895 2.14484 0.790001
      vertex -13.8532 2.34299 0
    endloop
  endfacet
  facet normal 0.310672 -0.645117 -0.698074
    outer loop
      vertex -13.3717 1.72003 0.790001
      vertex -13.8532 2.34299 0
      vertex -12.4895 2.14484 0.790001
    endloop
  endfacet
  facet normal 0.310663 -0.645123 -0.698072
    outer loop
      vertex -13.8532 2.34299 0
      vertex -13.3717 1.72003 0.790001
      vertex -13.8642 2.33768 0
    endloop
  endfacet
  facet normal 0.698076 0.159307 -0.698076
    outer loop
      vertex -14.2 0 0.790001
      vertex -14.9873 -0.0119309 0
      vertex -14.99 0 0
    endloop
  endfacet
  facet normal 0.698073 0.159331 -0.698074
    outer loop
      vertex -14.9873 -0.0119309 0
      vertex -14.2 0 0.790001
      vertex -13.9821 -0.954544 0.790001
    endloop
  endfacet
  facet normal 0.559838 0.446408 -0.698069
    outer loop
      vertex -13.8719 -2.32811 0
      vertex -13.3717 -1.72003 0.790001
      vertex -13.8642 -2.33768 0
    endloop
  endfacet
  facet normal 0.559812 0.446435 -0.698073
    outer loop
      vertex -13.3717 -1.72003 0.790001
      vertex -13.8719 -2.32811 0
      vertex -13.9821 -0.954544 0.790001
    endloop
  endfacet
  facet normal -0.310672 0.645117 -0.698074
    outer loop
      vertex -10.1468 -2.34299 0
      vertex -11.3347 -2.91504 0
      vertex -11.5105 -2.14484 0.790001
    endloop
  endfacet
  facet normal -0.310663 0.645123 -0.698072
    outer loop
      vertex -10.1468 -2.34299 0
      vertex -10.6283 -1.72003 0.790001
      vertex -10.1358 -2.33768 0
    endloop
  endfacet
  facet normal -0.310672 0.645117 -0.698074
    outer loop
      vertex -10.6283 -1.72003 0.790001
      vertex -10.1468 -2.34299 0
      vertex -11.5105 -2.14484 0.790001
    endloop
  endfacet
  facet normal 0.698074 0.159332 -0.698073
    outer loop
      vertex -13.9821 -0.954544 0.790001
      vertex -14.6939 -1.29731 0
      vertex -14.9873 -0.0119309 0
    endloop
  endfacet
  facet normal 0.559812 0.446435 -0.698073
    outer loop
      vertex -13.9821 -0.954544 0.790001
      vertex -13.8719 -2.32811 0
      vertex -14.6939 -1.29731 0
    endloop
  endfacet
  facet normal -0.974928 -0.222521 0
    outer loop
      vertex 14.2 0 0.790001
      vertex 13.9821 0.954544 5
      vertex 13.9821 0.954544 0.790001
    endloop
  endfacet
  facet normal -0.974928 -0.222521 0
    outer loop
      vertex 13.9821 0.954544 5
      vertex 14.2 0 0.790001
      vertex 14.2 0 5
    endloop
  endfacet
  facet normal 0.974928 -0.222521 0
    outer loop
      vertex 9.8 0 5
      vertex 10.0179 0.954544 0.790001
      vertex 10.0179 0.954544 5
    endloop
  endfacet
  facet normal 0.974928 -0.222521 0
    outer loop
      vertex 10.0179 0.954544 0.790001
      vertex 9.8 0 5
      vertex 9.8 0 0.790001
    endloop
  endfacet
  facet normal 0 -1 0
    outer loop
      vertex 11.5105 2.14484 0.790001
      vertex 12.4895 2.14484 5
      vertex 11.5105 2.14484 5
    endloop
  endfacet
  facet normal 0 -1 -0
    outer loop
      vertex 12.4895 2.14484 5
      vertex 11.5105 2.14484 0.790001
      vertex 12.4895 2.14484 0.790001
    endloop
  endfacet
  facet normal 0.433884 -0.900969 0
    outer loop
      vertex 10.6283 1.72003 0.790001
      vertex 11.5105 2.14484 5
      vertex 10.6283 1.72003 5
    endloop
  endfacet
  facet normal 0.433884 -0.900969 0
    outer loop
      vertex 11.5105 2.14484 5
      vertex 10.6283 1.72003 0.790001
      vertex 11.5105 2.14484 0.790001
    endloop
  endfacet
  facet normal 0 1 -0
    outer loop
      vertex 12.4895 -2.14484 0.790001
      vertex 11.5105 -2.14484 5
      vertex 12.4895 -2.14484 5
    endloop
  endfacet
  facet normal 0 1 0
    outer loop
      vertex 11.5105 -2.14484 5
      vertex 12.4895 -2.14484 0.790001
      vertex 11.5105 -2.14484 0.790001
    endloop
  endfacet
  facet normal -0.781832 0.62349 0
    outer loop
      vertex 13.3717 -1.72003 0.790001
      vertex 13.9821 -0.954544 5
      vertex 13.9821 -0.954544 0.790001
    endloop
  endfacet
  facet normal -0.781832 0.62349 0
    outer loop
      vertex 13.9821 -0.954544 5
      vertex 13.3717 -1.72003 0.790001
      vertex 13.3717 -1.72003 5
    endloop
  endfacet
  facet normal -0.433884 -0.900969 0
    outer loop
      vertex 12.4895 2.14484 0.790001
      vertex 13.3717 1.72003 5
      vertex 12.4895 2.14484 5
    endloop
  endfacet
  facet normal -0.433884 -0.900969 -0
    outer loop
      vertex 13.3717 1.72003 5
      vertex 12.4895 2.14484 0.790001
      vertex 13.3717 1.72003 0.790001
    endloop
  endfacet
  facet normal -0.781832 -0.62349 0
    outer loop
      vertex 13.9821 0.954544 0.790001
      vertex 13.3717 1.72003 5
      vertex 13.3717 1.72003 0.790001
    endloop
  endfacet
  facet normal -0.781832 -0.62349 0
    outer loop
      vertex 13.3717 1.72003 5
      vertex 13.9821 0.954544 0.790001
      vertex 13.9821 0.954544 5
    endloop
  endfacet
  facet normal 0.781832 -0.62349 0
    outer loop
      vertex 10.0179 0.954544 5
      vertex 10.6283 1.72003 0.790001
      vertex 10.6283 1.72003 5
    endloop
  endfacet
  facet normal 0.781832 -0.62349 0
    outer loop
      vertex 10.6283 1.72003 0.790001
      vertex 10.0179 0.954544 5
      vertex 10.0179 0.954544 0.790001
    endloop
  endfacet
  facet normal -0.974928 0.222521 0
    outer loop
      vertex 13.9821 -0.954544 0.790001
      vertex 14.2 0 5
      vertex 14.2 0 0.790001
    endloop
  endfacet
  facet normal -0.974928 0.222521 0
    outer loop
      vertex 14.2 0 5
      vertex 13.9821 -0.954544 0.790001
      vertex 13.9821 -0.954544 5
    endloop
  endfacet
  facet normal -0.433884 0.900969 0
    outer loop
      vertex 13.3717 -1.72003 0.790001
      vertex 12.4895 -2.14484 5
      vertex 13.3717 -1.72003 5
    endloop
  endfacet
  facet normal -0.433884 0.900969 0
    outer loop
      vertex 12.4895 -2.14484 5
      vertex 13.3717 -1.72003 0.790001
      vertex 12.4895 -2.14484 0.790001
    endloop
  endfacet
  facet normal 0.433884 0.900969 -0
    outer loop
      vertex 11.5105 -2.14484 0.790001
      vertex 10.6283 -1.72003 5
      vertex 11.5105 -2.14484 5
    endloop
  endfacet
  facet normal 0.433884 0.900969 0
    outer loop
      vertex 10.6283 -1.72003 5
      vertex 11.5105 -2.14484 0.790001
      vertex 10.6283 -1.72003 0.790001
    endloop
  endfacet
  facet normal 0.781832 0.62349 0
    outer loop
      vertex 10.6283 -1.72003 5
      vertex 10.0179 -0.954544 0.790001
      vertex 10.0179 -0.954544 5
    endloop
  endfacet
  facet normal 0.781832 0.62349 0
    outer loop
      vertex 10.0179 -0.954544 0.790001
      vertex 10.6283 -1.72003 5
      vertex 10.6283 -1.72003 0.790001
    endloop
  endfacet
  facet normal 0.974928 0.222521 0
    outer loop
      vertex 10.0179 -0.954544 5
      vertex 9.8 0 0.790001
      vertex 9.8 0 5
    endloop
  endfacet
  facet normal 0.974928 0.222521 0
    outer loop
      vertex 9.8 0 0.790001
      vertex 10.0179 -0.954544 5
      vertex 10.0179 -0.954544 0.790001
    endloop
  endfacet
  facet normal -0.559812 0.446435 -0.698073
    outer loop
      vertex 13.9821 -0.954544 0.790001
      vertex 14.6939 -1.29731 0
      vertex 13.8719 -2.32811 0
    endloop
  endfacet
  facet normal -0.698076 -0.159307 -0.698076
    outer loop
      vertex 14.2 0 0.790001
      vertex 14.9873 0.0119309 0
      vertex 14.99 0 0
    endloop
  endfacet
  facet normal -0.698073 -0.159331 -0.698074
    outer loop
      vertex 14.9873 0.0119309 0
      vertex 14.2 0 0.790001
      vertex 13.9821 0.954544 0.790001
    endloop
  endfacet
  facet normal -0.559838 0.446408 -0.698069
    outer loop
      vertex 13.3717 -1.72003 0.790001
      vertex 13.8719 -2.32811 0
      vertex 13.8642 -2.33768 0
    endloop
  endfacet
  facet normal -0.559812 0.446435 -0.698073
    outer loop
      vertex 13.8719 -2.32811 0
      vertex 13.3717 -1.72003 0.790001
      vertex 13.9821 -0.954544 0.790001
    endloop
  endfacet
  facet normal -0.698076 0.159307 -0.698076
    outer loop
      vertex 14.9873 -0.0119309 0
      vertex 14.2 0 0.790001
      vertex 14.99 0 0
    endloop
  endfacet
  facet normal -0.698073 0.159331 -0.698074
    outer loop
      vertex 14.2 0 0.790001
      vertex 14.9873 -0.0119309 0
      vertex 13.9821 -0.954544 0.790001
    endloop
  endfacet
  facet normal -0.698074 0.159332 -0.698073
    outer loop
      vertex 14.9873 -0.0119309 0
      vertex 14.6939 -1.29731 0
      vertex 13.9821 -0.954544 0.790001
    endloop
  endfacet
  facet normal -0.310672 -0.645117 -0.698074
    outer loop
      vertex 12.6653 2.91504 0
      vertex 13.8532 2.34299 0
      vertex 12.4895 2.14484 0.790001
    endloop
  endfacet
  facet normal -0.559812 -0.446435 -0.698073
    outer loop
      vertex 14.6939 1.29731 0
      vertex 13.9821 0.954544 0.790001
      vertex 13.8719 2.32811 0
    endloop
  endfacet
  facet normal -0.698074 -0.159332 -0.698073
    outer loop
      vertex 14.6939 1.29731 0
      vertex 14.9873 0.0119309 0
      vertex 13.9821 0.954544 0.790001
    endloop
  endfacet
  facet normal 0.310672 0.645117 -0.698074
    outer loop
      vertex 10.1468 -2.34299 0
      vertex 10.6283 -1.72003 0.790001
      vertex 11.5105 -2.14484 0.790001
    endloop
  endfacet
  facet normal 0.310663 0.645123 -0.698072
    outer loop
      vertex 10.6283 -1.72003 0.790001
      vertex 10.1468 -2.34299 0
      vertex 10.1358 -2.33768 0
    endloop
  endfacet
  facet normal 0.310672 0.645117 -0.698074
    outer loop
      vertex 11.5105 -2.14484 0.790001
      vertex 11.3347 -2.91504 0
      vertex 10.1468 -2.34299 0
    endloop
  endfacet
  facet normal -0.310663 -0.645123 -0.698072
    outer loop
      vertex 13.3717 1.72003 0.790001
      vertex 13.8532 2.34299 0
      vertex 13.8642 2.33768 0
    endloop
  endfacet
  facet normal -0.310672 -0.645117 -0.698074
    outer loop
      vertex 13.8532 2.34299 0
      vertex 13.3717 1.72003 0.790001
      vertex 12.4895 2.14484 0.790001
    endloop
  endfacet
  facet normal 0 -0.716026 -0.698074
    outer loop
      vertex 11.3347 2.91504 0
      vertex 12.4895 2.14484 0.790001
      vertex 11.5105 2.14484 0.790001
    endloop
  endfacet
  facet normal 0 -0.716026 -0.698074
    outer loop
      vertex 12.4895 2.14484 0.790001
      vertex 11.3347 2.91504 0
      vertex 12.6653 2.91504 0
    endloop
  endfacet
  facet normal 0.559838 -0.446408 -0.698069
    outer loop
      vertex 10.6283 1.72003 0.790001
      vertex 10.1281 2.32811 0
      vertex 10.1358 2.33768 0
    endloop
  endfacet
  facet normal 0.559812 -0.446435 -0.698073
    outer loop
      vertex 10.1281 2.32811 0
      vertex 10.6283 1.72003 0.790001
      vertex 10.0179 0.954544 0.790001
    endloop
  endfacet
  facet normal 0.559812 -0.446435 -0.698073
    outer loop
      vertex 10.1281 2.32811 0
      vertex 10.0179 0.954544 0.790001
      vertex 9.3061 1.29731 0
    endloop
  endfacet
  facet normal 0.698073 -0.159331 -0.698074
    outer loop
      vertex 9.8 0 0.790001
      vertex 9.01272 0.0119309 0
      vertex 10.0179 0.954544 0.790001
    endloop
  endfacet
  facet normal 0.698076 -0.159307 -0.698076
    outer loop
      vertex 9.01272 0.0119309 0
      vertex 9.8 0 0.790001
      vertex 9.01 0 0
    endloop
  endfacet
  facet normal 0.698074 -0.159332 -0.698073
    outer loop
      vertex 9.3061 1.29731 0
      vertex 10.0179 0.954544 0.790001
      vertex 9.01272 0.0119309 0
    endloop
  endfacet
  facet normal 0 0.716026 -0.698074
    outer loop
      vertex 12.6653 -2.91504 0
      vertex 11.5105 -2.14484 0.790001
      vertex 12.4895 -2.14484 0.790001
    endloop
  endfacet
  facet normal 0 0.716026 -0.698074
    outer loop
      vertex 11.5105 -2.14484 0.790001
      vertex 12.6653 -2.91504 0
      vertex 11.3347 -2.91504 0
    endloop
  endfacet
  facet normal -0.559812 -0.446435 -0.698073
    outer loop
      vertex 13.3717 1.72003 0.790001
      vertex 13.8719 2.32811 0
      vertex 13.9821 0.954544 0.790001
    endloop
  endfacet
  facet normal -0.559838 -0.446408 -0.698069
    outer loop
      vertex 13.8719 2.32811 0
      vertex 13.3717 1.72003 0.790001
      vertex 13.8642 2.33768 0
    endloop
  endfacet
  facet normal 0.310672 -0.645117 -0.698074
    outer loop
      vertex 11.3347 2.91504 0
      vertex 11.5105 2.14484 0.790001
      vertex 10.1468 2.34299 0
    endloop
  endfacet
  facet normal 0.310672 -0.645117 -0.698074
    outer loop
      vertex 10.6283 1.72003 0.790001
      vertex 10.1468 2.34299 0
      vertex 11.5105 2.14484 0.790001
    endloop
  endfacet
  facet normal 0.310663 -0.645123 -0.698072
    outer loop
      vertex 10.1468 2.34299 0
      vertex 10.6283 1.72003 0.790001
      vertex 10.1358 2.33768 0
    endloop
  endfacet
  facet normal 0.698076 0.159307 -0.698076
    outer loop
      vertex 9.8 0 0.790001
      vertex 9.01272 -0.0119309 0
      vertex 9.01 0 0
    endloop
  endfacet
  facet normal 0.698073 0.159331 -0.698074
    outer loop
      vertex 9.01272 -0.0119309 0
      vertex 9.8 0 0.790001
      vertex 10.0179 -0.954544 0.790001
    endloop
  endfacet
  facet normal 0.559838 0.446408 -0.698069
    outer loop
      vertex 10.1281 -2.32811 0
      vertex 10.6283 -1.72003 0.790001
      vertex 10.1358 -2.33768 0
    endloop
  endfacet
  facet normal 0.559812 0.446435 -0.698073
    outer loop
      vertex 10.6283 -1.72003 0.790001
      vertex 10.1281 -2.32811 0
      vertex 10.0179 -0.954544 0.790001
    endloop
  endfacet
  facet normal -0.310672 0.645117 -0.698074
    outer loop
      vertex 13.8532 -2.34299 0
      vertex 12.6653 -2.91504 0
      vertex 12.4895 -2.14484 0.790001
    endloop
  endfacet
  facet normal -0.310663 0.645123 -0.698072
    outer loop
      vertex 13.8532 -2.34299 0
      vertex 13.3717 -1.72003 0.790001
      vertex 13.8642 -2.33768 0
    endloop
  endfacet
  facet normal -0.310672 0.645117 -0.698074
    outer loop
      vertex 13.3717 -1.72003 0.790001
      vertex 13.8532 -2.34299 0
      vertex 12.4895 -2.14484 0.790001
    endloop
  endfacet
  facet normal 0.698074 0.159332 -0.698073
    outer loop
      vertex 10.0179 -0.954544 0.790001
      vertex 9.3061 -1.29731 0
      vertex 9.01272 -0.0119309 0
    endloop
  endfacet
  facet normal 0.559812 0.446435 -0.698073
    outer loop
      vertex 10.0179 -0.954544 0.790001
      vertex 10.1281 -2.32811 0
      vertex 9.3061 -1.29731 0
    endloop
  endfacet
  facet normal 0.994522 0.104528 0
    outer loop
      vertex 23 0 5
      vertex 22.7596 2.28703 0
      vertex 22.7596 2.28703 5
    endloop
  endfacet
  facet normal 0.994522 0.104528 0
    outer loop
      vertex 22.7596 2.28703 0
      vertex 23 0 5
      vertex 23 0 0
    endloop
  endfacet
  facet normal -0.994522 0.104528 0
    outer loop
      vertex -23 0 0
      vertex -22.7596 2.28703 5
      vertex -22.7596 2.28703 0
    endloop
  endfacet
  facet normal -0.994522 0.104528 0
    outer loop
      vertex -22.7596 2.28703 5
      vertex -23 0 0
      vertex -23 0 5
    endloop
  endfacet
  facet normal 0 1 -0
    outer loop
      vertex 13.1498 10.9397 0
      vertex -13.1498 10.9397 5
      vertex 13.1498 10.9397 5
    endloop
  endfacet
  facet normal 0 1 0
    outer loop
      vertex -13.1498 10.9397 5
      vertex 13.1498 10.9397 0
      vertex -13.1498 10.9397 0
    endloop
  endfacet
  facet normal 0.406737 0.913545 -0
    outer loop
      vertex 17.5 9.52628 0
      vertex 15.3992 10.4616 5
      vertex 17.5 9.52628 5
    endloop
  endfacet
  facet normal 0.406737 0.913545 0
    outer loop
      vertex 15.3992 10.4616 5
      vertex 17.5 9.52628 0
      vertex 15.3992 10.4616 0
    endloop
  endfacet
  facet normal 0.207912 0.978148 -0
    outer loop
      vertex 15.3992 10.4616 0
      vertex 13.1498 10.9397 5
      vertex 15.3992 10.4616 5
    endloop
  endfacet
  facet normal 0.207912 0.978148 0
    outer loop
      vertex 13.1498 10.9397 5
      vertex 15.3992 10.4616 0
      vertex 13.1498 10.9397 0
    endloop
  endfacet
  facet normal -0.587785 0.809017 0
    outer loop
      vertex -17.5 9.52628 0
      vertex -19.3604 8.17459 5
      vertex -17.5 9.52628 5
    endloop
  endfacet
  facet normal -0.587785 0.809017 0
    outer loop
      vertex -19.3604 8.17459 5
      vertex -17.5 9.52628 0
      vertex -19.3604 8.17459 0
    endloop
  endfacet
  facet normal -0.207912 0.978148 0
    outer loop
      vertex -13.1498 10.9397 0
      vertex -15.3992 10.4616 5
      vertex -13.1498 10.9397 5
    endloop
  endfacet
  facet normal -0.207912 0.978148 0
    outer loop
      vertex -15.3992 10.4616 5
      vertex -13.1498 10.9397 0
      vertex -15.3992 10.4616 0
    endloop
  endfacet
  facet normal 0.866025 -0.500001 0
    outer loop
      vertex 20.8992 -6.46564 5
      vertex 22.049 -4.4741 0
      vertex 22.049 -4.4741 5
    endloop
  endfacet
  facet normal 0.866025 -0.500001 0
    outer loop
      vertex 22.049 -4.4741 0
      vertex 20.8992 -6.46564 5
      vertex 20.8992 -6.46564 0
    endloop
  endfacet
  facet normal -0.207912 -0.978148 0
    outer loop
      vertex -15.3992 -10.4616 0
      vertex -13.1498 -10.9397 5
      vertex -15.3992 -10.4616 5
    endloop
  endfacet
  facet normal -0.207912 -0.978148 -0
    outer loop
      vertex -13.1498 -10.9397 5
      vertex -15.3992 -10.4616 0
      vertex -13.1498 -10.9397 0
    endloop
  endfacet
  facet normal 0.743145 0.66913 0
    outer loop
      vertex 20.8992 6.46564 5
      vertex 19.3604 8.17459 0
      vertex 19.3604 8.17459 5
    endloop
  endfacet
  facet normal 0.743145 0.66913 0
    outer loop
      vertex 19.3604 8.17459 0
      vertex 20.8992 6.46564 5
      vertex 20.8992 6.46564 0
    endloop
  endfacet
  facet normal 0.951056 0.309017 0
    outer loop
      vertex 22.7596 2.28703 5
      vertex 22.049 4.4741 0
      vertex 22.049 4.4741 5
    endloop
  endfacet
  facet normal 0.951056 0.309017 0
    outer loop
      vertex 22.049 4.4741 0
      vertex 22.7596 2.28703 5
      vertex 22.7596 2.28703 0
    endloop
  endfacet
  facet normal 0.587785 0.809017 -0
    outer loop
      vertex 19.3604 8.17459 0
      vertex 17.5 9.52628 5
      vertex 19.3604 8.17459 5
    endloop
  endfacet
  facet normal 0.587785 0.809017 0
    outer loop
      vertex 17.5 9.52628 5
      vertex 19.3604 8.17459 0
      vertex 17.5 9.52628 0
    endloop
  endfacet
  facet normal -0.866025 0.500001 0
    outer loop
      vertex -22.049 4.4741 0
      vertex -20.8992 6.46564 5
      vertex -20.8992 6.46564 0
    endloop
  endfacet
  facet normal -0.866025 0.500001 0
    outer loop
      vertex -20.8992 6.46564 5
      vertex -22.049 4.4741 0
      vertex -22.049 4.4741 5
    endloop
  endfacet
  facet normal -0.743145 0.66913 0
    outer loop
      vertex -20.8992 6.46564 0
      vertex -19.3604 8.17459 5
      vertex -19.3604 8.17459 0
    endloop
  endfacet
  facet normal -0.743145 0.66913 0
    outer loop
      vertex -19.3604 8.17459 5
      vertex -20.8992 6.46564 0
      vertex -20.8992 6.46564 5
    endloop
  endfacet
  facet normal -0.951056 0.309017 0
    outer loop
      vertex -22.7596 2.28703 0
      vertex -22.049 4.4741 5
      vertex -22.049 4.4741 0
    endloop
  endfacet
  facet normal -0.951056 0.309017 0
    outer loop
      vertex -22.049 4.4741 5
      vertex -22.7596 2.28703 0
      vertex -22.7596 2.28703 5
    endloop
  endfacet
  facet normal 0 0 1
    outer loop
      vertex 14.2 0 5
      vertex 23 0 5
      vertex 22.7596 2.28703 5
    endloop
  endfacet
  facet normal 0 0 1
    outer loop
      vertex 13.9821 0.954544 5
      vertex 22.7596 2.28703 5
      vertex 22.049 4.4741 5
    endloop
  endfacet
  facet normal 0 0 1
    outer loop
      vertex 23 0 5
      vertex 14.2 0 5
      vertex 22.7596 -2.28703 5
    endloop
  endfacet
  facet normal 0 0 1
    outer loop
      vertex 13.9821 0.954544 5
      vertex 22.049 4.4741 5
      vertex 20.8992 6.46564 5
    endloop
  endfacet
  facet normal -0 0 1
    outer loop
      vertex 13.9821 -0.954544 5
      vertex 22.7596 -2.28703 5
      vertex 14.2 0 5
    endloop
  endfacet
  facet normal 0 0 1
    outer loop
      vertex 13.3717 1.72003 5
      vertex 20.8992 6.46564 5
      vertex 19.3604 8.17459 5
    endloop
  endfacet
  facet normal 0 0 1
    outer loop
      vertex 22.7596 -2.28703 5
      vertex 13.9821 -0.954544 5
      vertex 22.049 -4.4741 5
    endloop
  endfacet
  facet normal 0 0 1
    outer loop
      vertex 13.3717 1.72003 5
      vertex 19.3604 8.17459 5
      vertex 17.5 9.52628 5
    endloop
  endfacet
  facet normal 0 0 1
    outer loop
      vertex 22.049 -4.4741 5
      vertex 13.9821 -0.954544 5
      vertex 20.8992 -6.46564 5
    endloop
  endfacet
  facet normal 0 0 1
    outer loop
      vertex 12.4895 2.14484 5
      vertex 17.5 9.52628 5
      vertex 15.3992 10.4616 5
    endloop
  endfacet
  facet normal -0 0 1
    outer loop
      vertex 13.3717 -1.72003 5
      vertex 20.8992 -6.46564 5
      vertex 13.9821 -0.954544 5
    endloop
  endfacet
  facet normal 0 0 1
    outer loop
      vertex 20.8992 -6.46564 5
      vertex 13.3717 -1.72003 5
      vertex 19.3604 -8.17459 5
    endloop
  endfacet
  facet normal 0 0 1
    outer loop
      vertex 22.7596 2.28703 5
      vertex 13.9821 0.954544 5
      vertex 14.2 0 5
    endloop
  endfacet
  facet normal 0 0 1
    outer loop
      vertex 20.8992 6.46564 5
      vertex 13.3717 1.72003 5
      vertex 13.9821 0.954544 5
    endloop
  endfacet
  facet normal 0 0 1
    outer loop
      vertex 12.4895 2.14484 5
      vertex 15.3992 10.4616 5
      vertex 13.1498 10.9397 5
    endloop
  endfacet
  facet normal 0 0 1
    outer loop
      vertex 17.5 9.52628 5
      vertex 12.4895 2.14484 5
      vertex 13.3717 1.72003 5
    endloop
  endfacet
  facet normal 0 0 1
    outer loop
      vertex 13.1498 10.9397 5
      vertex 11.5105 2.14484 5
      vertex 12.4895 2.14484 5
    endloop
  endfacet
  facet normal 0 0 1
    outer loop
      vertex 13.1498 10.9397 5
      vertex 10.6283 1.72003 5
      vertex 11.5105 2.14484 5
    endloop
  endfacet
  facet normal 0 0 1
    outer loop
      vertex 13.1498 10.9397 5
      vertex 10.0179 0.954544 5
      vertex 10.6283 1.72003 5
    endloop
  endfacet
  facet normal 0 0 1
    outer loop
      vertex 8 -10.9397 5
      vertex 5.5 -11 5
      vertex 8 -11 5
    endloop
  endfacet
  facet normal 0 0 1
    outer loop
      vertex 10.6283 -1.72003 5
      vertex 5.5 -11 5
      vertex 8 -10.9397 5
    endloop
  endfacet
  facet normal 0 0 1
    outer loop
      vertex -9.8 0 5
      vertex 9.8 0 5
      vertex 10.0179 0.954544 5
    endloop
  endfacet
  facet normal 0 0 1
    outer loop
      vertex -10.0179 0.954544 5
      vertex 10.0179 0.954544 5
      vertex 13.1498 10.9397 5
    endloop
  endfacet
  facet normal 0 0 1
    outer loop
      vertex 5.5 -11 5
      vertex 2.2 -37.25 5
      vertex 5.5 -46 5
    endloop
  endfacet
  facet normal 0 0 1
    outer loop
      vertex 5.5 -11 5
      vertex 1.98213 -36.2955 5
      vertex 2.2 -37.25 5
    endloop
  endfacet
  facet normal 0 0 1
    outer loop
      vertex 5.5 -11 5
      vertex 1.37168 -35.53 5
      vertex 1.98213 -36.2955 5
    endloop
  endfacet
  facet normal 0 0 1
    outer loop
      vertex 5.5 -11 5
      vertex 0.489546 -35.1052 5
      vertex 1.37168 -35.53 5
    endloop
  endfacet
  facet normal 0 0 1
    outer loop
      vertex 5.5 -11 5
      vertex -0.489546 -35.1052 5
      vertex 0.489546 -35.1052 5
    endloop
  endfacet
  facet normal -0 0 1
    outer loop
      vertex -5.5 -11 5
      vertex -0.489546 -35.1052 5
      vertex 5.5 -11 5
    endloop
  endfacet
  facet normal 0 0 1
    outer loop
      vertex -0.489546 -35.1052 5
      vertex -5.5 -11 5
      vertex -1.37168 -35.53 5
    endloop
  endfacet
  facet normal 0 0 1
    outer loop
      vertex -1.98213 -36.2955 5
      vertex -5.5 -11 5
      vertex -2.2 -37.25 5
    endloop
  endfacet
  facet normal 0 0 1
    outer loop
      vertex -1.37168 -35.53 5
      vertex -5.5 -11 5
      vertex -1.98213 -36.2955 5
    endloop
  endfacet
  facet normal 0 0 1
    outer loop
      vertex 9.8 0 5
      vertex -9.8 0 5
      vertex 5.5 -11 5
    endloop
  endfacet
  facet normal 0 0 1
    outer loop
      vertex 5.5 -11 5
      vertex -9.8 0 5
      vertex -5.5 -11 5
    endloop
  endfacet
  facet normal -0 0 1
    outer loop
      vertex -10.0179 -0.954544 5
      vertex -5.5 -11 5
      vertex -9.8 0 5
    endloop
  endfacet
  facet normal 0 0 1
    outer loop
      vertex 10.0179 0.954544 5
      vertex -10.0179 0.954544 5
      vertex -9.8 0 5
    endloop
  endfacet
  facet normal 0 0 1
    outer loop
      vertex 13.1498 10.9397 5
      vertex -10.6283 1.72003 5
      vertex -10.0179 0.954544 5
    endloop
  endfacet
  facet normal -0 0 1
    outer loop
      vertex -13.1498 10.9397 5
      vertex -10.6283 1.72003 5
      vertex 13.1498 10.9397 5
    endloop
  endfacet
  facet normal 0 0 1
    outer loop
      vertex -10.6283 1.72003 5
      vertex -13.1498 10.9397 5
      vertex -11.5105 2.14484 5
    endloop
  endfacet
  facet normal 0 0 1
    outer loop
      vertex -11.5105 2.14484 5
      vertex -13.1498 10.9397 5
      vertex -12.4895 2.14484 5
    endloop
  endfacet
  facet normal -0 0 1
    outer loop
      vertex -15.3992 10.4616 5
      vertex -12.4895 2.14484 5
      vertex -13.1498 10.9397 5
    endloop
  endfacet
  facet normal -0 0 1
    outer loop
      vertex -17.5 9.52628 5
      vertex -12.4895 2.14484 5
      vertex -15.3992 10.4616 5
    endloop
  endfacet
  facet normal 0 0 1
    outer loop
      vertex -12.4895 2.14484 5
      vertex -17.5 9.52628 5
      vertex -13.3717 1.72003 5
    endloop
  endfacet
  facet normal -0 0 1
    outer loop
      vertex -19.3604 8.17459 5
      vertex -13.3717 1.72003 5
      vertex -17.5 9.52628 5
    endloop
  endfacet
  facet normal 0 0 1
    outer loop
      vertex 19.3604 -8.17459 5
      vertex 13.3717 -1.72003 5
      vertex 17.5 -9.52628 5
    endloop
  endfacet
  facet normal -0 0 1
    outer loop
      vertex 12.4895 -2.14484 5
      vertex 17.5 -9.52628 5
      vertex 13.3717 -1.72003 5
    endloop
  endfacet
  facet normal 0 0 1
    outer loop
      vertex 17.5 -9.52628 5
      vertex 12.4895 -2.14484 5
      vertex 15.3992 -10.4616 5
    endloop
  endfacet
  facet normal 0 0 1
    outer loop
      vertex 15.3992 -10.4616 5
      vertex 12.4895 -2.14484 5
      vertex 13.1498 -10.9397 5
    endloop
  endfacet
  facet normal -0 0 1
    outer loop
      vertex 11.5105 -2.14484 5
      vertex 13.1498 -10.9397 5
      vertex 12.4895 -2.14484 5
    endloop
  endfacet
  facet normal 0 0 1
    outer loop
      vertex 8 -10.9397 5
      vertex 11.5105 -2.14484 5
      vertex 10.6283 -1.72003 5
    endloop
  endfacet
  facet normal 0 0 1
    outer loop
      vertex 5.5 -11 5
      vertex 10.6283 -1.72003 5
      vertex 10.0179 -0.954544 5
    endloop
  endfacet
  facet normal 0 0 1
    outer loop
      vertex 11.5105 -2.14484 5
      vertex 8 -10.9397 5
      vertex 13.1498 -10.9397 5
    endloop
  endfacet
  facet normal 0 0 1
    outer loop
      vertex 5.5 -11 5
      vertex 10.0179 -0.954544 5
      vertex 9.8 0 5
    endloop
  endfacet
  facet normal -0 0 1
    outer loop
      vertex 1.98213 -38.2045 5
      vertex 5.5 -46 5
      vertex 2.2 -37.25 5
    endloop
  endfacet
  facet normal -0 0 1
    outer loop
      vertex 1.37168 -38.97 5
      vertex 5.5 -46 5
      vertex 1.98213 -38.2045 5
    endloop
  endfacet
  facet normal -0 0 1
    outer loop
      vertex 0.489546 -39.3948 5
      vertex 5.5 -46 5
      vertex 1.37168 -38.97 5
    endloop
  endfacet
  facet normal -0 0 1
    outer loop
      vertex -0.489546 -39.3948 5
      vertex 5.5 -46 5
      vertex 0.489546 -39.3948 5
    endloop
  endfacet
  facet normal 0 0 1
    outer loop
      vertex -5.5 -46 5
      vertex -0.489546 -39.3948 5
      vertex -1.37168 -38.97 5
    endloop
  endfacet
  facet normal 0 0 1
    outer loop
      vertex -0.489546 -39.3948 5
      vertex -5.5 -46 5
      vertex 5.5 -46 5
    endloop
  endfacet
  facet normal 0 0 1
    outer loop
      vertex -1.98213 -38.2045 5
      vertex -5.5 -46 5
      vertex -1.37168 -38.97 5
    endloop
  endfacet
  facet normal 0 0 1
    outer loop
      vertex -2.2 -37.25 5
      vertex -5.5 -46 5
      vertex -1.98213 -38.2045 5
    endloop
  endfacet
  facet normal 0 0 1
    outer loop
      vertex -5.5 -46 5
      vertex -2.2 -37.25 5
      vertex -5.5 -11 5
    endloop
  endfacet
  facet normal 0 0 1
    outer loop
      vertex -5.5 -11 5
      vertex -8 -10.9397 5
      vertex -8 -11 5
    endloop
  endfacet
  facet normal -0 0 1
    outer loop
      vertex -10.6283 -1.72003 5
      vertex -5.5 -11 5
      vertex -10.0179 -0.954544 5
    endloop
  endfacet
  facet normal 0 0 1
    outer loop
      vertex -5.5 -11 5
      vertex -10.6283 -1.72003 5
      vertex -8 -10.9397 5
    endloop
  endfacet
  facet normal -0 0 1
    outer loop
      vertex -11.5105 -2.14484 5
      vertex -8 -10.9397 5
      vertex -10.6283 -1.72003 5
    endloop
  endfacet
  facet normal 0 0 1
    outer loop
      vertex -13.1498 -10.9397 5
      vertex -11.5105 -2.14484 5
      vertex -12.4895 -2.14484 5
    endloop
  endfacet
  facet normal 0 0 1
    outer loop
      vertex -11.5105 -2.14484 5
      vertex -13.1498 -10.9397 5
      vertex -8 -10.9397 5
    endloop
  endfacet
  facet normal 0 0 1
    outer loop
      vertex -17.5 -9.52628 5
      vertex -12.4895 -2.14484 5
      vertex -13.3717 -1.72003 5
    endloop
  endfacet
  facet normal 0 0 1
    outer loop
      vertex -20.8992 -6.46564 5
      vertex -13.3717 -1.72003 5
      vertex -13.9821 -0.954544 5
    endloop
  endfacet
  facet normal 0 0 1
    outer loop
      vertex -22.7596 -2.28703 5
      vertex -13.9821 -0.954544 5
      vertex -14.2 0 5
    endloop
  endfacet
  facet normal -0 0 1
    outer loop
      vertex -20.8992 6.46564 5
      vertex -13.3717 1.72003 5
      vertex -19.3604 8.17459 5
    endloop
  endfacet
  facet normal 0 0 1
    outer loop
      vertex -12.4895 -2.14484 5
      vertex -15.3992 -10.4616 5
      vertex -13.1498 -10.9397 5
    endloop
  endfacet
  facet normal 0 0 1
    outer loop
      vertex -13.3717 1.72003 5
      vertex -20.8992 6.46564 5
      vertex -13.9821 0.954544 5
    endloop
  endfacet
  facet normal 0 0 1
    outer loop
      vertex -12.4895 -2.14484 5
      vertex -17.5 -9.52628 5
      vertex -15.3992 -10.4616 5
    endloop
  endfacet
  facet normal -0 0 1
    outer loop
      vertex -22.049 4.4741 5
      vertex -13.9821 0.954544 5
      vertex -20.8992 6.46564 5
    endloop
  endfacet
  facet normal 0 0 1
    outer loop
      vertex -13.3717 -1.72003 5
      vertex -19.3604 -8.17459 5
      vertex -17.5 -9.52628 5
    endloop
  endfacet
  facet normal -0 0 1
    outer loop
      vertex -22.7596 2.28703 5
      vertex -13.9821 0.954544 5
      vertex -22.049 4.4741 5
    endloop
  endfacet
  facet normal 0 0 1
    outer loop
      vertex -13.3717 -1.72003 5
      vertex -20.8992 -6.46564 5
      vertex -19.3604 -8.17459 5
    endloop
  endfacet
  facet normal 0 0 1
    outer loop
      vertex -13.9821 0.954544 5
      vertex -22.7596 2.28703 5
      vertex -14.2 0 5
    endloop
  endfacet
  facet normal 0 0 1
    outer loop
      vertex -13.9821 -0.954544 5
      vertex -22.049 -4.4741 5
      vertex -20.8992 -6.46564 5
    endloop
  endfacet
  facet normal 0 0 1
    outer loop
      vertex -23 0 5
      vertex -14.2 0 5
      vertex -22.7596 2.28703 5
    endloop
  endfacet
  facet normal 0 0 1
    outer loop
      vertex -13.9821 -0.954544 5
      vertex -22.7596 -2.28703 5
      vertex -22.049 -4.4741 5
    endloop
  endfacet
  facet normal 0 0 1
    outer loop
      vertex -14.2 0 5
      vertex -23 0 5
      vertex -22.7596 -2.28703 5
    endloop
  endfacet
  facet normal -0.406737 0.913545 0
    outer loop
      vertex -15.3992 10.4616 0
      vertex -17.5 9.52628 5
      vertex -15.3992 10.4616 5
    endloop
  endfacet
  facet normal -0.406737 0.913545 0
    outer loop
      vertex -17.5 9.52628 5
      vertex -15.3992 10.4616 0
      vertex -17.5 9.52628 0
    endloop
  endfacet
  facet normal 0.994522 -0.104528 0
    outer loop
      vertex 22.7596 -2.28703 5
      vertex 23 0 0
      vertex 23 0 5
    endloop
  endfacet
  facet normal 0.994522 -0.104528 0
    outer loop
      vertex 23 0 0
      vertex 22.7596 -2.28703 5
      vertex 22.7596 -2.28703 0
    endloop
  endfacet
  facet normal 0.207912 -0.978148 0
    outer loop
      vertex 13.1498 -10.9397 0
      vertex 15.3992 -10.4616 5
      vertex 13.1498 -10.9397 5
    endloop
  endfacet
  facet normal 0.207912 -0.978148 0
    outer loop
      vertex 15.3992 -10.4616 5
      vertex 13.1498 -10.9397 0
      vertex 15.3992 -10.4616 0
    endloop
  endfacet
  facet normal 0.587785 -0.809017 0
    outer loop
      vertex 17.5 -9.52628 0
      vertex 19.3604 -8.17459 5
      vertex 17.5 -9.52628 5
    endloop
  endfacet
  facet normal 0.587785 -0.809017 0
    outer loop
      vertex 19.3604 -8.17459 5
      vertex 17.5 -9.52628 0
      vertex 19.3604 -8.17459 0
    endloop
  endfacet
  facet normal 0 -1 0
    outer loop
      vertex 8 -10.9397 0
      vertex 13.1498 -10.9397 5
      vertex 8 -10.9397 5
    endloop
  endfacet
  facet normal 0 -1 -0
    outer loop
      vertex 13.1498 -10.9397 5
      vertex 8 -10.9397 0
      vertex 13.1498 -10.9397 0
    endloop
  endfacet
  facet normal 0 -1 0
    outer loop
      vertex -13.1498 -10.9397 0
      vertex -8 -10.9397 5
      vertex -13.1498 -10.9397 5
    endloop
  endfacet
  facet normal 0 -1 -0
    outer loop
      vertex -8 -10.9397 5
      vertex -13.1498 -10.9397 0
      vertex -8 -10.9397 0
    endloop
  endfacet
  facet normal -0.743145 -0.66913 0
    outer loop
      vertex -19.3604 -8.17459 0
      vertex -20.8992 -6.46564 5
      vertex -20.8992 -6.46564 0
    endloop
  endfacet
  facet normal -0.743145 -0.66913 0
    outer loop
      vertex -20.8992 -6.46564 5
      vertex -19.3604 -8.17459 0
      vertex -19.3604 -8.17459 5
    endloop
  endfacet
  facet normal -0.406737 -0.913545 0
    outer loop
      vertex -17.5 -9.52628 0
      vertex -15.3992 -10.4616 5
      vertex -17.5 -9.52628 5
    endloop
  endfacet
  facet normal -0.406737 -0.913545 -0
    outer loop
      vertex -15.3992 -10.4616 5
      vertex -17.5 -9.52628 0
      vertex -15.3992 -10.4616 0
    endloop
  endfacet
  facet normal 0 0 -1
    outer loop
      vertex 9.01272 -0.0119309 0
      vertex -9.01272 -0.0119309 0
      vertex -9.01 0 0
    endloop
  endfacet
  facet normal 0 0 -1
    outer loop
      vertex 9.3061 -1.29731 0
      vertex -9.3061 -1.29731 0
      vertex -9.01272 -0.0119309 0
    endloop
  endfacet
  facet normal 0 0 -1
    outer loop
      vertex -8 -10.9397 0
      vertex -10.1281 -2.32811 0
      vertex -9.3061 -1.29731 0
    endloop
  endfacet
  facet normal 0 0 -1
    outer loop
      vertex -8 -10.9397 0
      vertex -10.1358 -2.33768 0
      vertex -10.1281 -2.32811 0
    endloop
  endfacet
  facet normal 0 0 -1
    outer loop
      vertex -8 -10.9397 0
      vertex -10.1468 -2.34299 0
      vertex -10.1358 -2.33768 0
    endloop
  endfacet
  facet normal 0 0 -1
    outer loop
      vertex -8 -10.9397 0
      vertex -11.3347 -2.91504 0
      vertex -10.1468 -2.34299 0
    endloop
  endfacet
  facet normal 0 0 -1
    outer loop
      vertex -13.1498 -10.9397 0
      vertex -11.3347 -2.91504 0
      vertex -8 -10.9397 0
    endloop
  endfacet
  facet normal -0 0 -1
    outer loop
      vertex -11.3347 -2.91504 0
      vertex -13.1498 -10.9397 0
      vertex -12.6653 -2.91504 0
    endloop
  endfacet
  facet normal 0 0 -1
    outer loop
      vertex -15.3992 -10.4616 0
      vertex -12.6653 -2.91504 0
      vertex -13.1498 -10.9397 0
    endloop
  endfacet
  facet normal 0 0 -1
    outer loop
      vertex -17.5 -9.52628 0
      vertex -12.6653 -2.91504 0
      vertex -15.3992 -10.4616 0
    endloop
  endfacet
  facet normal -0 0 -1
    outer loop
      vertex -12.6653 -2.91504 0
      vertex -17.5 -9.52628 0
      vertex -13.8532 -2.34299 0
    endloop
  endfacet
  facet normal -0 0 -1
    outer loop
      vertex -13.8532 -2.34299 0
      vertex -17.5 -9.52628 0
      vertex -13.8642 -2.33768 0
    endloop
  endfacet
  facet normal 0 0 -1
    outer loop
      vertex -19.3604 -8.17459 0
      vertex -13.8642 -2.33768 0
      vertex -17.5 -9.52628 0
    endloop
  endfacet
  facet normal -0 0 -1
    outer loop
      vertex -13.8642 -2.33768 0
      vertex -19.3604 -8.17459 0
      vertex -13.8719 -2.32811 0
    endloop
  endfacet
  facet normal 0 0 -1
    outer loop
      vertex -20.8992 -6.46564 0
      vertex -13.8719 -2.32811 0
      vertex -19.3604 -8.17459 0
    endloop
  endfacet
  facet normal 0 0 -1
    outer loop
      vertex 8 -46 0
      vertex 4.64 -37.25 0
      vertex 8 -10.9397 0
    endloop
  endfacet
  facet normal 0 0 -1
    outer loop
      vertex 8 -46 0
      vertex 2.98625 -40.1144 0
      vertex 4.64 -37.25 0
    endloop
  endfacet
  facet normal 0 0 -1
    outer loop
      vertex 8 -46 0
      vertex 2.32 -41.2684 0
      vertex 2.98625 -40.1144 0
    endloop
  endfacet
  facet normal 0 0 -1
    outer loop
      vertex 8 -46 0
      vertex -2.32 -41.2684 0
      vertex 2.32 -41.2684 0
    endloop
  endfacet
  facet normal 0 0 -1
    outer loop
      vertex -8 -46 0
      vertex -2.98625 -40.1144 0
      vertex -2.32 -41.2684 0
    endloop
  endfacet
  facet normal -0 0 -1
    outer loop
      vertex -2.98625 -40.1144 0
      vertex -8 -46 0
      vertex -4.64 -37.25 0
    endloop
  endfacet
  facet normal 0 0 -1
    outer loop
      vertex -8 -46 0
      vertex -2.32 -41.2684 0
      vertex 8 -46 0
    endloop
  endfacet
  facet normal 0 0 -1
    outer loop
      vertex 14.99 0 0
      vertex 23 0 0
      vertex 22.7596 -2.28703 0
    endloop
  endfacet
  facet normal 0 0 -1
    outer loop
      vertex 14.6939 -1.29731 0
      vertex 22.7596 -2.28703 0
      vertex 22.049 -4.4741 0
    endloop
  endfacet
  facet normal 0 0 -1
    outer loop
      vertex 23 0 0
      vertex 14.99 0 0
      vertex 22.7596 2.28703 0
    endloop
  endfacet
  facet normal 0 0 -1
    outer loop
      vertex 14.6939 -1.29731 0
      vertex 22.049 -4.4741 0
      vertex 20.8992 -6.46564 0
    endloop
  endfacet
  facet normal 0 0 -1
    outer loop
      vertex 14.9873 0.0119309 0
      vertex 22.7596 2.28703 0
      vertex 14.99 0 0
    endloop
  endfacet
  facet normal 0 0 -1
    outer loop
      vertex 13.8719 -2.32811 0
      vertex 20.8992 -6.46564 0
      vertex 19.3604 -8.17459 0
    endloop
  endfacet
  facet normal 0 0 -1
    outer loop
      vertex 14.6939 1.29731 0
      vertex 22.7596 2.28703 0
      vertex 14.9873 0.0119309 0
    endloop
  endfacet
  facet normal 0 0 -1
    outer loop
      vertex 13.8642 -2.33768 0
      vertex 19.3604 -8.17459 0
      vertex 17.5 -9.52628 0
    endloop
  endfacet
  facet normal -0 0 -1
    outer loop
      vertex 22.7596 2.28703 0
      vertex 14.6939 1.29731 0
      vertex 22.049 4.4741 0
    endloop
  endfacet
  facet normal 0 0 -1
    outer loop
      vertex 12.6653 -2.91504 0
      vertex 17.5 -9.52628 0
      vertex 15.3992 -10.4616 0
    endloop
  endfacet
  facet normal -0 0 -1
    outer loop
      vertex 22.049 4.4741 0
      vertex 14.6939 1.29731 0
      vertex 20.8992 6.46564 0
    endloop
  endfacet
  facet normal 0 0 -1
    outer loop
      vertex 13.8719 2.32811 0
      vertex 20.8992 6.46564 0
      vertex 14.6939 1.29731 0
    endloop
  endfacet
  facet normal 0 0 -1
    outer loop
      vertex 22.7596 -2.28703 0
      vertex 14.9873 -0.0119309 0
      vertex 14.99 0 0
    endloop
  endfacet
  facet normal 0 0 -1
    outer loop
      vertex 22.7596 -2.28703 0
      vertex 14.6939 -1.29731 0
      vertex 14.9873 -0.0119309 0
    endloop
  endfacet
  facet normal 0 0 -1
    outer loop
      vertex 20.8992 -6.46564 0
      vertex 13.8719 -2.32811 0
      vertex 14.6939 -1.29731 0
    endloop
  endfacet
  facet normal 0 0 -1
    outer loop
      vertex 19.3604 -8.17459 0
      vertex 13.8642 -2.33768 0
      vertex 13.8719 -2.32811 0
    endloop
  endfacet
  facet normal 0 0 -1
    outer loop
      vertex 17.5 -9.52628 0
      vertex 13.8532 -2.34299 0
      vertex 13.8642 -2.33768 0
    endloop
  endfacet
  facet normal 0 0 -1
    outer loop
      vertex 12.6653 -2.91504 0
      vertex 15.3992 -10.4616 0
      vertex 13.1498 -10.9397 0
    endloop
  endfacet
  facet normal 0 0 -1
    outer loop
      vertex 17.5 -9.52628 0
      vertex 12.6653 -2.91504 0
      vertex 13.8532 -2.34299 0
    endloop
  endfacet
  facet normal 0 0 -1
    outer loop
      vertex 13.1498 -10.9397 0
      vertex 11.3347 -2.91504 0
      vertex 12.6653 -2.91504 0
    endloop
  endfacet
  facet normal 0 0 -1
    outer loop
      vertex 8 -10.9397 0
      vertex 11.3347 -2.91504 0
      vertex 13.1498 -10.9397 0
    endloop
  endfacet
  facet normal -0 0 -1
    outer loop
      vertex 11.3347 -2.91504 0
      vertex 8 -10.9397 0
      vertex 10.1468 -2.34299 0
    endloop
  endfacet
  facet normal -0 0 -1
    outer loop
      vertex 10.1468 -2.34299 0
      vertex 8 -10.9397 0
      vertex 10.1358 -2.33768 0
    endloop
  endfacet
  facet normal -0 0 -1
    outer loop
      vertex 10.1358 -2.33768 0
      vertex 8 -10.9397 0
      vertex 10.1281 -2.32811 0
    endloop
  endfacet
  facet normal 0 0 -1
    outer loop
      vertex -9.3061 -1.29731 0
      vertex 9.3061 -1.29731 0
      vertex -8 -10.9397 0
    endloop
  endfacet
  facet normal 0 0 -1
    outer loop
      vertex -8 -10.9397 0
      vertex 9.3061 -1.29731 0
      vertex 8 -10.9397 0
    endloop
  endfacet
  facet normal -0 0 -1
    outer loop
      vertex 10.1281 -2.32811 0
      vertex 8 -10.9397 0
      vertex 9.3061 -1.29731 0
    endloop
  endfacet
  facet normal -0 0 -1
    outer loop
      vertex 20.8992 6.46564 0
      vertex 13.8719 2.32811 0
      vertex 19.3604 8.17459 0
    endloop
  endfacet
  facet normal 0 0 -1
    outer loop
      vertex 13.8642 2.33768 0
      vertex 19.3604 8.17459 0
      vertex 13.8719 2.32811 0
    endloop
  endfacet
  facet normal -0 0 -1
    outer loop
      vertex 19.3604 8.17459 0
      vertex 13.8642 2.33768 0
      vertex 17.5 9.52628 0
    endloop
  endfacet
  facet normal 0 0 -1
    outer loop
      vertex 13.8532 2.34299 0
      vertex 17.5 9.52628 0
      vertex 13.8642 2.33768 0
    endloop
  endfacet
  facet normal 0 0 -1
    outer loop
      vertex 12.6653 2.91504 0
      vertex 17.5 9.52628 0
      vertex 13.8532 2.34299 0
    endloop
  endfacet
  facet normal -0 0 -1
    outer loop
      vertex 17.5 9.52628 0
      vertex 12.6653 2.91504 0
      vertex 15.3992 10.4616 0
    endloop
  endfacet
  facet normal -0 0 -1
    outer loop
      vertex 15.3992 10.4616 0
      vertex 12.6653 2.91504 0
      vertex 13.1498 10.9397 0
    endloop
  endfacet
  facet normal 0 0 -1
    outer loop
      vertex 11.3347 2.91504 0
      vertex 13.1498 10.9397 0
      vertex 12.6653 2.91504 0
    endloop
  endfacet
  facet normal 0 0 -1
    outer loop
      vertex 10.1468 2.34299 0
      vertex 13.1498 10.9397 0
      vertex 11.3347 2.91504 0
    endloop
  endfacet
  facet normal 0 0 -1
    outer loop
      vertex 10.1358 2.33768 0
      vertex 13.1498 10.9397 0
      vertex 10.1468 2.34299 0
    endloop
  endfacet
  facet normal 0 0 -1
    outer loop
      vertex -10.1358 2.33768 0
      vertex 10.1358 2.33768 0
      vertex 10.1281 2.32811 0
    endloop
  endfacet
  facet normal 0 0 -1
    outer loop
      vertex -10.1281 2.32811 0
      vertex 10.1281 2.32811 0
      vertex 9.3061 1.29731 0
    endloop
  endfacet
  facet normal 0 0 -1
    outer loop
      vertex 2.98625 -34.3856 0
      vertex 8 -10.9397 0
      vertex 4.64 -37.25 0
    endloop
  endfacet
  facet normal 0 0 -1
    outer loop
      vertex 2.32 -33.2316 0
      vertex 8 -10.9397 0
      vertex 2.98625 -34.3856 0
    endloop
  endfacet
  facet normal 0 0 -1
    outer loop
      vertex -8 -10.9397 0
      vertex 8 -10.9397 0
      vertex 2.32 -33.2316 0
    endloop
  endfacet
  facet normal 0 0 -1
    outer loop
      vertex -8 -10.9397 0
      vertex 2.32 -33.2316 0
      vertex -2.32 -33.2316 0
    endloop
  endfacet
  facet normal 0 0 -1
    outer loop
      vertex -9.01272 -0.0119309 0
      vertex 9.01272 -0.0119309 0
      vertex 9.3061 -1.29731 0
    endloop
  endfacet
  facet normal 0 0 -1
    outer loop
      vertex 9.01272 -0.0119309 0
      vertex -9.01 0 0
      vertex 9.01 0 0
    endloop
  endfacet
  facet normal 0 0 -1
    outer loop
      vertex -8 -10.9397 0
      vertex -2.32 -33.2316 0
      vertex -2.98625 -34.3856 0
    endloop
  endfacet
  facet normal 0 0 -1
    outer loop
      vertex -8 -10.9397 0
      vertex -2.98625 -34.3856 0
      vertex -4.64 -37.25 0
    endloop
  endfacet
  facet normal 0 0 -1
    outer loop
      vertex -8 -10.9397 0
      vertex -4.64 -37.25 0
      vertex -8 -46 0
    endloop
  endfacet
  facet normal 0 0 -1
    outer loop
      vertex 9.01 0 0
      vertex -9.01 0 0
      vertex 9.01272 0.0119309 0
    endloop
  endfacet
  facet normal 0 0 -1
    outer loop
      vertex -9.01272 0.0119309 0
      vertex 9.01272 0.0119309 0
      vertex -9.01 0 0
    endloop
  endfacet
  facet normal 0 0 -1
    outer loop
      vertex 9.01272 0.0119309 0
      vertex -9.01272 0.0119309 0
      vertex 9.3061 1.29731 0
    endloop
  endfacet
  facet normal 0 0 -1
    outer loop
      vertex -9.3061 1.29731 0
      vertex 9.3061 1.29731 0
      vertex -9.01272 0.0119309 0
    endloop
  endfacet
  facet normal 0 0 -1
    outer loop
      vertex -10.1281 2.32811 0
      vertex 9.3061 1.29731 0
      vertex -9.3061 1.29731 0
    endloop
  endfacet
  facet normal 0 0 -1
    outer loop
      vertex -10.1358 2.33768 0
      vertex 10.1281 2.32811 0
      vertex -10.1281 2.32811 0
    endloop
  endfacet
  facet normal 0 0 -1
    outer loop
      vertex 10.1358 2.33768 0
      vertex -10.1358 2.33768 0
      vertex 13.1498 10.9397 0
    endloop
  endfacet
  facet normal 0 0 -1
    outer loop
      vertex -13.1498 10.9397 0
      vertex -10.1358 2.33768 0
      vertex -10.1468 2.34299 0
    endloop
  endfacet
  facet normal 0 0 -1
    outer loop
      vertex -13.1498 10.9397 0
      vertex -10.1468 2.34299 0
      vertex -11.3347 2.91504 0
    endloop
  endfacet
  facet normal 0 0 -1
    outer loop
      vertex -13.1498 10.9397 0
      vertex -11.3347 2.91504 0
      vertex -12.6653 2.91504 0
    endloop
  endfacet
  facet normal 0 0 -1
    outer loop
      vertex -10.1358 2.33768 0
      vertex -13.1498 10.9397 0
      vertex 13.1498 10.9397 0
    endloop
  endfacet
  facet normal 0 0 -1
    outer loop
      vertex -17.5 9.52628 0
      vertex -12.6653 2.91504 0
      vertex -13.8532 2.34299 0
    endloop
  endfacet
  facet normal 0 0 -1
    outer loop
      vertex -17.5 9.52628 0
      vertex -13.8532 2.34299 0
      vertex -13.8642 2.33768 0
    endloop
  endfacet
  facet normal 0 0 -1
    outer loop
      vertex -19.3604 8.17459 0
      vertex -13.8642 2.33768 0
      vertex -13.8719 2.32811 0
    endloop
  endfacet
  facet normal 0 0 -1
    outer loop
      vertex -20.8992 6.46564 0
      vertex -13.8719 2.32811 0
      vertex -14.6939 1.29731 0
    endloop
  endfacet
  facet normal 0 0 -1
    outer loop
      vertex -22.7596 2.28703 0
      vertex -14.6939 1.29731 0
      vertex -14.9873 0.0119309 0
    endloop
  endfacet
  facet normal 0 0 -1
    outer loop
      vertex -22.7596 2.28703 0
      vertex -14.9873 0.0119309 0
      vertex -14.99 0 0
    endloop
  endfacet
  facet normal 0 0 -1
    outer loop
      vertex -12.6653 2.91504 0
      vertex -15.3992 10.4616 0
      vertex -13.1498 10.9397 0
    endloop
  endfacet
  facet normal -0 0 -1
    outer loop
      vertex -13.8719 -2.32811 0
      vertex -20.8992 -6.46564 0
      vertex -14.6939 -1.29731 0
    endloop
  endfacet
  facet normal 0 0 -1
    outer loop
      vertex -22.049 -4.4741 0
      vertex -14.6939 -1.29731 0
      vertex -20.8992 -6.46564 0
    endloop
  endfacet
  facet normal 0 0 -1
    outer loop
      vertex -12.6653 2.91504 0
      vertex -17.5 9.52628 0
      vertex -15.3992 10.4616 0
    endloop
  endfacet
  facet normal 0 0 -1
    outer loop
      vertex -22.7596 -2.28703 0
      vertex -14.6939 -1.29731 0
      vertex -22.049 -4.4741 0
    endloop
  endfacet
  facet normal 0 0 -1
    outer loop
      vertex -13.8642 2.33768 0
      vertex -19.3604 8.17459 0
      vertex -17.5 9.52628 0
    endloop
  endfacet
  facet normal -0 0 -1
    outer loop
      vertex -14.6939 -1.29731 0
      vertex -22.7596 -2.28703 0
      vertex -14.9873 -0.0119309 0
    endloop
  endfacet
  facet normal 0 0 -1
    outer loop
      vertex -13.8719 2.32811 0
      vertex -20.8992 6.46564 0
      vertex -19.3604 8.17459 0
    endloop
  endfacet
  facet normal -0 0 -1
    outer loop
      vertex -14.9873 -0.0119309 0
      vertex -22.7596 -2.28703 0
      vertex -14.99 0 0
    endloop
  endfacet
  facet normal 0 0 -1
    outer loop
      vertex -14.6939 1.29731 0
      vertex -22.049 4.4741 0
      vertex -20.8992 6.46564 0
    endloop
  endfacet
  facet normal 0 0 -1
    outer loop
      vertex -23 0 0
      vertex -14.99 0 0
      vertex -22.7596 -2.28703 0
    endloop
  endfacet
  facet normal 0 0 -1
    outer loop
      vertex -14.6939 1.29731 0
      vertex -22.7596 2.28703 0
      vertex -22.049 4.4741 0
    endloop
  endfacet
  facet normal 0 0 -1
    outer loop
      vertex -14.99 0 0
      vertex -23 0 0
      vertex -22.7596 2.28703 0
    endloop
  endfacet
  facet normal 0.866025 0.500001 0
    outer loop
      vertex 22.049 4.4741 5
      vertex 20.8992 6.46564 0
      vertex 20.8992 6.46564 5
    endloop
  endfacet
  facet normal 0.866025 0.500001 0
    outer loop
      vertex 20.8992 6.46564 0
      vertex 22.049 4.4741 5
      vertex 22.049 4.4741 0
    endloop
  endfacet
  facet normal 0.406737 -0.913545 0
    outer loop
      vertex 15.3992 -10.4616 0
      vertex 17.5 -9.52628 5
      vertex 15.3992 -10.4616 5
    endloop
  endfacet
  facet normal 0.406737 -0.913545 0
    outer loop
      vertex 17.5 -9.52628 5
      vertex 15.3992 -10.4616 0
      vertex 17.5 -9.52628 0
    endloop
  endfacet
  facet normal 0.743145 -0.66913 0
    outer loop
      vertex 19.3604 -8.17459 5
      vertex 20.8992 -6.46564 0
      vertex 20.8992 -6.46564 5
    endloop
  endfacet
  facet normal 0.743145 -0.66913 0
    outer loop
      vertex 20.8992 -6.46564 0
      vertex 19.3604 -8.17459 5
      vertex 19.3604 -8.17459 0
    endloop
  endfacet
  facet normal 0.951056 -0.309017 0
    outer loop
      vertex 22.049 -4.4741 5
      vertex 22.7596 -2.28703 0
      vertex 22.7596 -2.28703 5
    endloop
  endfacet
  facet normal 0.951056 -0.309017 0
    outer loop
      vertex 22.7596 -2.28703 0
      vertex 22.049 -4.4741 5
      vertex 22.049 -4.4741 0
    endloop
  endfacet
  facet normal -0.587785 -0.809017 0
    outer loop
      vertex -19.3604 -8.17459 0
      vertex -17.5 -9.52628 5
      vertex -19.3604 -8.17459 5
    endloop
  endfacet
  facet normal -0.587785 -0.809017 -0
    outer loop
      vertex -17.5 -9.52628 5
      vertex -19.3604 -8.17459 0
      vertex -17.5 -9.52628 0
    endloop
  endfacet
  facet normal -0.866025 -0.500001 0
    outer loop
      vertex -20.8992 -6.46564 0
      vertex -22.049 -4.4741 5
      vertex -22.049 -4.4741 0
    endloop
  endfacet
  facet normal -0.866025 -0.500001 0
    outer loop
      vertex -22.049 -4.4741 5
      vertex -20.8992 -6.46564 0
      vertex -20.8992 -6.46564 5
    endloop
  endfacet
  facet normal -0.994522 -0.104528 0
    outer loop
      vertex -22.7596 -2.28703 0
      vertex -23 0 5
      vertex -23 0 0
    endloop
  endfacet
  facet normal -0.994522 -0.104528 0
    outer loop
      vertex -23 0 5
      vertex -22.7596 -2.28703 0
      vertex -22.7596 -2.28703 5
    endloop
  endfacet
  facet normal -0.951056 -0.309017 0
    outer loop
      vertex -22.049 -4.4741 0
      vertex -22.7596 -2.28703 5
      vertex -22.7596 -2.28703 0
    endloop
  endfacet
  facet normal -0.951056 -0.309017 0
    outer loop
      vertex -22.7596 -2.28703 5
      vertex -22.049 -4.4741 0
      vertex -22.049 -4.4741 5
    endloop
  endfacet
endsolid OpenSCAD_Model
